<?plantuml 1.2026.2beta3?><svg xmlns="http://www.w3.org/2000/svg" xmlns:xlink="http://www.w3.org/1999/xlink" contentStyleType="text/css" data-diagram-type="DESCRIPTION" height="1078px" preserveAspectRatio="none" style="width:1138px;height:1078px;background:#FEFEFE;" version="1.1" viewBox="0 0 1138 1078" width="1138px" zoomAndPan="magnify"><title>&lt;b&gt;Step 1: Landis+Gyr Meter Fleet&lt;/b&gt;
&lt;i&gt;Field devices &#8212; the data source&lt;/i&gt;</title><defs/><g><rect fill="#FEFEFE" height="1078" style="stroke:none;stroke-width:1;" width="1138" x="0" y="0"/><g class="title" data-source-line="3"><text fill="#000000" font-family="Verdana" font-size="22" font-weight="bold" lengthAdjust="spacing" textLength="390.3926" x="369.3037" y="35.4209">Step 1: Landis+Gyr Meter Fleet</text><text fill="#000000" font-family="Verdana" font-size="22" font-style="italic" font-weight="bold" lengthAdjust="spacing" textLength="394.4209" x="367.2896" y="61.0303">Field devices &#8212; the data source</text></g><!--cluster Meters--><g class="cluster" data-qualified-name="Meters" data-source-line="31" id="ent0002"><polygon fill="#E8F5E9" points="180,93.2188,190,83.2188,930,83.2188,930,201.1287,920,211.1287,180,211.1287,180,93.2188" style="stroke:#2E7D32;stroke-width:1;"/><line style="stroke:#2E7D32;stroke-width:1;" x1="920" x2="930" y1="93.2188" y2="83.2188"/><line style="stroke:#2E7D32;stroke-width:1;" x1="180" x2="920" y1="93.2188" y2="93.2188"/><line style="stroke:#2E7D32;stroke-width:1;" x1="920" x2="920" y1="93.2188" y2="211.1287"/><text fill="#1B5E20" font-family="Verdana" font-size="14" font-weight="bold" lengthAdjust="spacing" textLength="107.4404" x="497.2798" y="109.2139">Smart Meters</text></g><!--cluster Comm--><g class="cluster" data-qualified-name="Comm" data-source-line="38" id="ent0007"><path d="M219.9873,246.3851 C227.8234,232.6789 236.2745,232.7642 246.8059,243.4177 C253.6043,231.0282 264.1797,234.4937 269.984,244.4489 C278.2711,233.4518 285.7356,231.001 294.3847,244.0821 C301.7938,230.0679 312.9602,231.0835 320.2852,244.1624 C328.8308,231.803 337.7213,233.1263 346.6067,243.7736 C352.7663,230.7709 362.4142,231.974 370.2317,242.0784 C380.1697,231.8669 388.9939,233.1546 395.7517,245.6521 C400.42,231.5186 411.871,231.4875 420.3344,241.8425 C428.0988,231.3416 439.2654,230.3095 445.9812,243.002 C453.3794,231.8575 464.2265,229.9887 470.9715,243.6598 C477.1904,232.7898 487.8073,231.6256 494.2031,243.479 C501.5306,231.2658 513.9127,230.7422 520.737,244.0031 C528.1055,230.7519 539.9515,229.2114 548.2624,243.0455 C555.9783,233.741 566.1505,234.9824 570.9745,246.24 C592.6998,250.7749 595.1247,269.1747 582.0369,283.9282 C596.8216,302.614 591.8538,315.673 569.0748,321.3464 C563.5635,332.7623 555.009,335.5216 546.5692,324.2517 C539.0203,336.3464 529.3438,339.4825 519.0346,327.3948 C512.1966,339.2633 502.635,336.6992 495.9381,327.2421 C489.6797,339.995 476.8074,338.9845 469.3558,328.6139 C463.4226,340.7834 452.8703,341.5851 446.2545,329.2576 C440.0956,340.9038 428.5432,341.0407 420.8111,331.1129 C413.9579,341.608 405.8368,342.5515 397.8121,332.4191 C390.082,342.8719 380.0853,343.6074 372.4459,332.3133 C362.5058,344.7532 352.0048,344.4335 345.0941,329.3075 C338.1416,339.6377 328.9523,342.3809 321.4,329.9313 C312.4545,341.1511 302.5087,338.2243 296.2524,326.9279 C289.471,336.9396 277.6574,336.2261 272.1374,325.4636 C263.1326,337.8653 255.755,335.3922 248.0858,324.1074 C241.1238,335.6887 231.2343,335.2251 223.4285,325.0642 C201.7911,317.7876 201.8504,298.9548 217.469,285.9952 C201.3323,274.8215 200.4758,255.2924 219.9873,246.3851" fill="#EEEEEE" style="stroke:#BDBDBD;stroke-width:1;"/><text fill="#9E9E9E" font-family="Verdana" font-size="13" font-weight="bold" lengthAdjust="spacing" textLength="180.2988" x="303.8506" y="260.1956">Communication Network</text></g><!--cluster HES--><g class="cluster" data-qualified-name="HES" data-source-line="44" id="ent0011"><polygon fill="#E0E0E0" points="21,371.0888,31,361.0888,391,361.0888,391,483.0587,381,493.0587,21,493.0587,21,371.0888" style="stroke:#BDBDBD;stroke-width:1;"/><line style="stroke:#BDBDBD;stroke-width:1;" x1="381" x2="391" y1="371.0888" y2="361.0888"/><line style="stroke:#BDBDBD;stroke-width:1;" x1="21" x2="381" y1="371.0888" y2="371.0888"/><line style="stroke:#BDBDBD;stroke-width:1;" x1="381" x2="381" y1="371.0888" y2="493.0587"/><text fill="#9E9E9E" font-family="Verdana" font-size="14" font-weight="bold" lengthAdjust="spacing" textLength="124.9131" x="139.5435" y="387.0839">Gridstream HES</text><text fill="#9E9E9E" font-family="Verdana" font-size="14" font-weight="bold" lengthAdjust="spacing" textLength="152.0313" x="125.9844" y="403.3807">(Head-End System)</text></g><!--cluster MDM--><g class="cluster" data-qualified-name="MDM" data-source-line="49" id="ent0014"><polygon fill="#E0E0E0" points="375,543.0587,385,533.0587,681,533.0587,681,775.0787,671,785.0787,375,785.0787,375,543.0587" style="stroke:#BDBDBD;stroke-width:1;"/><line style="stroke:#BDBDBD;stroke-width:1;" x1="671" x2="681" y1="543.0587" y2="533.0587"/><line style="stroke:#BDBDBD;stroke-width:1;" x1="375" x2="671" y1="543.0587" y2="543.0587"/><line style="stroke:#BDBDBD;stroke-width:1;" x1="671" x2="671" y1="543.0587" y2="785.0787"/><text fill="#9E9E9E" font-family="Verdana" font-size="14" font-weight="bold" lengthAdjust="spacing" textLength="90.7334" x="478.6333" y="559.0539">Core MDMS</text><text fill="#9E9E9E" font-family="Verdana" font-size="14" font-weight="bold" lengthAdjust="spacing" textLength="151.5049" x="448.2476" y="575.3507">(Meter Data Mgmt)</text></g><!--cluster GA--><g class="cluster" data-qualified-name="GA" data-source-line="55" id="ent0018"><polygon fill="#E0E0E0" points="721,679.1087,731,669.1087,1121,669.1087,1121,947.0487,1111,957.0487,721,957.0487,721,679.1087" style="stroke:#BDBDBD;stroke-width:1;"/><line style="stroke:#BDBDBD;stroke-width:1;" x1="1111" x2="1121" y1="679.1087" y2="669.1087"/><line style="stroke:#BDBDBD;stroke-width:1;" x1="721" x2="1111" y1="679.1087" y2="679.1087"/><line style="stroke:#BDBDBD;stroke-width:1;" x1="1111" x2="1111" y1="679.1087" y2="957.0487"/><text fill="#9E9E9E" font-family="Verdana" font-size="14" font-weight="bold" lengthAdjust="spacing" textLength="165.8467" x="834.0767" y="695.1039">Gridstream Analytics</text></g><!--cluster API--><g class="cluster" data-qualified-name="API" data-source-line="61" id="ent0022"><polygon fill="#E0E0E0" points="282,835.0787,292,825.0787,593,825.0787,593,1051.0188,583,1061.0188,282,1061.0188,282,835.0787" style="stroke:#BDBDBD;stroke-width:1;"/><line style="stroke:#BDBDBD;stroke-width:1;" x1="583" x2="593" y1="835.0787" y2="825.0787"/><line style="stroke:#BDBDBD;stroke-width:1;" x1="282" x2="583" y1="835.0787" y2="835.0787"/><line style="stroke:#BDBDBD;stroke-width:1;" x1="583" x2="583" y1="835.0787" y2="1061.0188"/><text fill="#9E9E9E" font-family="Verdana" font-size="14" font-weight="bold" lengthAdjust="spacing" textLength="71.1553" x="397.9224" y="851.0739">REST API</text><text fill="#9E9E9E" font-family="Verdana" font-size="14" font-weight="bold" lengthAdjust="spacing" textLength="191.9805" x="337.5098" y="867.3707">(FastAPI + OpenAPI 3.1)</text></g><!--entity E350--><g class="entity" data-qualified-name="Meters.E350" data-source-line="32" id="ent0003"><rect fill="#C8E6C9" height="71.9063" rx="2.5" ry="2.5" style="stroke:#43A047;stroke-width:1;" width="151.8555" x="196.07" y="123.2188"/><rect fill="#C8E6C9" height="10" style="stroke:#43A047;stroke-width:1;" width="15" x="327.9255" y="128.2188"/><rect fill="#C8E6C9" height="2" style="stroke:#43A047;stroke-width:1;" width="4" x="325.9255" y="130.2188"/><rect fill="#C8E6C9" height="2" style="stroke:#43A047;stroke-width:1;" width="4" x="325.9255" y="134.2188"/><text fill="#9E9E9E" font-family="Verdana" font-size="12" font-weight="bold" lengthAdjust="spacing" textLength="33.2461" x="211.07" y="154.3574">E350</text><text fill="#9E9E9E" font-family="Verdana" font-size="12" lengthAdjust="spacing" textLength="66.6387" x="248.1305" y="154.3574">Residential</text><text fill="#9E9E9E" font-family="Verdana" font-size="12" lengthAdjust="spacing" textLength="111.8555" x="211.07" y="168.3262">1&#966; 120V &#183; Form 2S</text><text fill="#9E9E9E" font-family="Verdana" font-size="12" font-style="italic" lengthAdjust="spacing" textLength="82.9512" x="211.07" y="182.2949">~40% of fleet</text></g><!--entity E360--><g class="entity" data-qualified-name="Meters.E360" data-source-line="33" id="ent0004"><rect fill="#C8E6C9" height="71.9063" rx="2.5" ry="2.5" style="stroke:#43A047;stroke-width:1;" width="136.5449" x="777.73" y="123.2188"/><rect fill="#C8E6C9" height="10" style="stroke:#43A047;stroke-width:1;" width="15" x="894.2749" y="128.2188"/><rect fill="#C8E6C9" height="2" style="stroke:#43A047;stroke-width:1;" width="4" x="892.2749" y="130.2188"/><rect fill="#C8E6C9" height="2" style="stroke:#43A047;stroke-width:1;" width="4" x="892.2749" y="134.2188"/><text fill="#9E9E9E" font-family="Verdana" font-size="12" font-weight="bold" lengthAdjust="spacing" textLength="33.2461" x="792.73" y="154.3574">E360</text><text fill="#9E9E9E" font-family="Verdana" font-size="12" lengthAdjust="spacing" textLength="59.4844" x="829.7905" y="154.3574">Advanced</text><text fill="#9E9E9E" font-family="Verdana" font-size="12" lengthAdjust="spacing" textLength="83.5195" x="792.73" y="168.3262">1&#966; 120V &#183; LTE</text><text fill="#9E9E9E" font-family="Verdana" font-size="12" font-style="italic" lengthAdjust="spacing" textLength="82.9512" x="792.73" y="182.2949">~30% of fleet</text></g><!--entity S4x--><g class="entity" data-qualified-name="Meters.S4x" data-source-line="34" id="ent0005"><rect fill="#C8E6C9" height="71.9063" rx="2.5" ry="2.5" style="stroke:#43A047;stroke-width:1;" width="163.1465" x="383.43" y="123.2188"/><rect fill="#C8E6C9" height="10" style="stroke:#43A047;stroke-width:1;" width="15" x="526.5765" y="128.2188"/><rect fill="#C8E6C9" height="2" style="stroke:#43A047;stroke-width:1;" width="4" x="524.5765" y="130.2188"/><rect fill="#C8E6C9" height="2" style="stroke:#43A047;stroke-width:1;" width="4" x="524.5765" y="134.2188"/><text fill="#9E9E9E" font-family="Verdana" font-size="12" font-weight="bold" lengthAdjust="spacing" textLength="62.3613" x="398.43" y="154.3574">S4x/E650</text><text fill="#9E9E9E" font-family="Verdana" font-size="12" lengthAdjust="spacing" textLength="21.2754" x="464.6058" y="154.3574">C&amp;I</text><text fill="#9E9E9E" font-family="Verdana" font-size="12" lengthAdjust="spacing" textLength="123.1465" x="398.43" y="168.3262">3&#966; 240V &#183; Polyphase</text><text fill="#9E9E9E" font-family="Verdana" font-size="12" font-style="italic" lengthAdjust="spacing" textLength="82.9512" x="398.43" y="182.2949">~20% of fleet</text></g><!--entity E660--><g class="entity" data-qualified-name="Meters.E660" data-source-line="35" id="ent0006"><rect fill="#C8E6C9" height="71.9063" rx="2.5" ry="2.5" style="stroke:#43A047;stroke-width:1;" width="161.6348" x="581.18" y="123.2188"/><rect fill="#C8E6C9" height="10" style="stroke:#43A047;stroke-width:1;" width="15" x="722.8148" y="128.2188"/><rect fill="#C8E6C9" height="2" style="stroke:#43A047;stroke-width:1;" width="4" x="720.8148" y="130.2188"/><rect fill="#C8E6C9" height="2" style="stroke:#43A047;stroke-width:1;" width="4" x="720.8148" y="134.2188"/><text fill="#9E9E9E" font-family="Verdana" font-size="12" font-weight="bold" lengthAdjust="spacing" textLength="83.3262" x="596.18" y="154.3574">E660/Revelo</text><text fill="#9E9E9E" font-family="Verdana" font-size="12" lengthAdjust="spacing" textLength="18.2109" x="683.3206" y="154.3574">IoT</text><text fill="#9E9E9E" font-family="Verdana" font-size="12" lengthAdjust="spacing" textLength="121.6348" x="596.18" y="168.3262">3&#966; 240V &#183; Grid-Edge</text><text fill="#9E9E9E" font-family="Verdana" font-size="12" font-style="italic" lengthAdjust="spacing" textLength="82.9512" x="596.18" y="182.2949">~10% of fleet</text></g><!--entity RF--><g class="entity" data-qualified-name="Comm.RF" data-source-line="39" id="ent0008"><rect fill="#F5F5F5" height="43.9688" rx="2.5" ry="2.5" style="stroke:#E0E0E0;stroke-width:1;" width="90.6484" x="226.68" y="269.1287"/><rect fill="#F5F5F5" height="10" style="stroke:#E0E0E0;stroke-width:1;" width="15" x="297.3284" y="274.1287"/><rect fill="#F5F5F5" height="2" style="stroke:#E0E0E0;stroke-width:1;" width="4" x="295.3284" y="276.1287"/><rect fill="#F5F5F5" height="2" style="stroke:#E0E0E0;stroke-width:1;" width="4" x="295.3284" y="280.1287"/><text fill="#9E9E9E" font-family="Verdana" font-size="12" lengthAdjust="spacing" textLength="50.6484" x="241.68" y="300.2674">RF Mesh</text></g><!--entity PLC--><g class="entity" data-qualified-name="Comm.PLC" data-source-line="40" id="ent0009"><rect fill="#F5F5F5" height="43.9688" rx="2.5" ry="2.5" style="stroke:#E0E0E0;stroke-width:1;" width="62.3008" x="351.85" y="269.1287"/><rect fill="#F5F5F5" height="10" style="stroke:#E0E0E0;stroke-width:1;" width="15" x="394.1508" y="274.1287"/><rect fill="#F5F5F5" height="2" style="stroke:#E0E0E0;stroke-width:1;" width="4" x="392.1508" y="276.1287"/><rect fill="#F5F5F5" height="2" style="stroke:#E0E0E0;stroke-width:1;" width="4" x="392.1508" y="280.1287"/><text fill="#9E9E9E" font-family="Verdana" font-size="12" lengthAdjust="spacing" textLength="22.3008" x="366.85" y="300.2674">PLC</text></g><!--entity LTE--><g class="entity" data-qualified-name="Comm.LTE" data-source-line="41" id="ent0010"><rect fill="#F5F5F5" height="43.9688" rx="2.5" ry="2.5" style="stroke:#E0E0E0;stroke-width:1;" width="111.0684" x="449.47" y="269.1287"/><rect fill="#F5F5F5" height="10" style="stroke:#E0E0E0;stroke-width:1;" width="15" x="540.5384" y="274.1287"/><rect fill="#F5F5F5" height="2" style="stroke:#E0E0E0;stroke-width:1;" width="4" x="538.5384" y="276.1287"/><rect fill="#F5F5F5" height="2" style="stroke:#E0E0E0;stroke-width:1;" width="4" x="538.5384" y="280.1287"/><text fill="#9E9E9E" font-family="Verdana" font-size="12" lengthAdjust="spacing" textLength="71.0684" x="464.47" y="300.2674">Cellular LTE</text></g><!--entity DC--><g class="entity" data-qualified-name="HES.DC" data-source-line="45" id="ent0012"><rect fill="#F5F5F5" height="43.9688" rx="2.5" ry="2.5" style="stroke:#E0E0E0;stroke-width:1;" width="131.8223" x="45.09" y="425.0888"/><rect fill="#F5F5F5" height="10" style="stroke:#E0E0E0;stroke-width:1;" width="15" x="156.9123" y="430.0888"/><rect fill="#F5F5F5" height="2" style="stroke:#E0E0E0;stroke-width:1;" width="4" x="154.9123" y="432.0888"/><rect fill="#F5F5F5" height="2" style="stroke:#E0E0E0;stroke-width:1;" width="4" x="154.9123" y="436.0888"/><text fill="#9E9E9E" font-family="Verdana" font-size="12" lengthAdjust="spacing" textLength="91.8223" x="60.09" y="456.2274">Data Collection</text></g><!--entity MI--><g class="entity" data-qualified-name="HES.MI" data-source-line="46" id="ent0013"><rect fill="#F5F5F5" height="43.9688" rx="2.5" ry="2.5" style="stroke:#E0E0E0;stroke-width:1;" width="135.8887" x="212.06" y="425.0888"/><rect fill="#F5F5F5" height="10" style="stroke:#E0E0E0;stroke-width:1;" width="15" x="327.9487" y="430.0888"/><rect fill="#F5F5F5" height="2" style="stroke:#E0E0E0;stroke-width:1;" width="4" x="325.9487" y="432.0888"/><rect fill="#F5F5F5" height="2" style="stroke:#E0E0E0;stroke-width:1;" width="4" x="325.9487" y="436.0888"/><text fill="#9E9E9E" font-family="Verdana" font-size="12" lengthAdjust="spacing" textLength="95.8887" x="227.06" y="456.2274">Meter Inventory</text></g><!--entity Val--><g class="entity" data-qualified-name="MDM.Val" data-source-line="50" id="ent0015"><rect fill="#F5F5F5" height="43.9688" rx="2.5" ry="2.5" style="stroke:#E0E0E0;stroke-width:1;" width="100.1875" x="417.91" y="597.0587"/><rect fill="#F5F5F5" height="10" style="stroke:#E0E0E0;stroke-width:1;" width="15" x="498.0975" y="602.0587"/><rect fill="#F5F5F5" height="2" style="stroke:#E0E0E0;stroke-width:1;" width="4" x="496.0975" y="604.0587"/><rect fill="#F5F5F5" height="2" style="stroke:#E0E0E0;stroke-width:1;" width="4" x="496.0975" y="608.0587"/><text fill="#9E9E9E" font-family="Verdana" font-size="12" lengthAdjust="spacing" textLength="60.1875" x="432.91" y="628.1974">Validation</text></g><!--entity Est--><g class="entity" data-qualified-name="MDM.Est" data-source-line="51" id="ent0016"><rect fill="#F5F5F5" height="43.9688" rx="2.5" ry="2.5" style="stroke:#E0E0E0;stroke-width:1;" width="103.9023" x="553.05" y="597.0587"/><rect fill="#F5F5F5" height="10" style="stroke:#E0E0E0;stroke-width:1;" width="15" x="636.9523" y="602.0587"/><rect fill="#F5F5F5" height="2" style="stroke:#E0E0E0;stroke-width:1;" width="4" x="634.9523" y="604.0587"/><rect fill="#F5F5F5" height="2" style="stroke:#E0E0E0;stroke-width:1;" width="4" x="634.9523" y="608.0587"/><text fill="#9E9E9E" font-family="Verdana" font-size="12" lengthAdjust="spacing" textLength="63.9023" x="568.05" y="628.1974">Estimation</text></g><!--entity Edit--><g class="entity" data-qualified-name="MDM.Edit" data-source-line="52" id="ent0017"><rect fill="#F5F5F5" height="43.9688" rx="2.5" ry="2.5" style="stroke:#E0E0E0;stroke-width:1;" width="81.7949" x="422.1" y="717.1087"/><rect fill="#F5F5F5" height="10" style="stroke:#E0E0E0;stroke-width:1;" width="15" x="483.8949" y="722.1087"/><rect fill="#F5F5F5" height="2" style="stroke:#E0E0E0;stroke-width:1;" width="4" x="481.8949" y="724.1087"/><rect fill="#F5F5F5" height="2" style="stroke:#E0E0E0;stroke-width:1;" width="4" x="481.8949" y="728.1087"/><text fill="#9E9E9E" font-family="Verdana" font-size="12" lengthAdjust="spacing" textLength="41.7949" x="437.1" y="748.2474">Editing</text></g><!--entity DA--><g class="entity" data-qualified-name="GA.DA" data-source-line="56" id="ent0019"><rect fill="#F5F5F5" height="43.9688" rx="2.5" ry="2.5" style="stroke:#E0E0E0;stroke-width:1;" width="144.1445" x="763.93" y="717.1087"/><rect fill="#F5F5F5" height="10" style="stroke:#E0E0E0;stroke-width:1;" width="15" x="888.0745" y="722.1087"/><rect fill="#F5F5F5" height="2" style="stroke:#E0E0E0;stroke-width:1;" width="4" x="886.0745" y="724.1087"/><rect fill="#F5F5F5" height="2" style="stroke:#E0E0E0;stroke-width:1;" width="4" x="886.0745" y="728.1087"/><text fill="#9E9E9E" font-family="Verdana" font-size="12" lengthAdjust="spacing" textLength="104.1445" x="778.93" y="748.2474">Demand Analysis</text></g><!--entity VM--><g class="entity" data-qualified-name="GA.VM" data-source-line="57" id="ent0020"><rect fill="#F5F5F5" height="43.9688" rx="2.5" ry="2.5" style="stroke:#E0E0E0;stroke-width:1;" width="153.9297" x="943.04" y="717.1087"/><rect fill="#F5F5F5" height="10" style="stroke:#E0E0E0;stroke-width:1;" width="15" x="1076.9697" y="722.1087"/><rect fill="#F5F5F5" height="2" style="stroke:#E0E0E0;stroke-width:1;" width="4" x="1074.9697" y="724.1087"/><rect fill="#F5F5F5" height="2" style="stroke:#E0E0E0;stroke-width:1;" width="4" x="1074.9697" y="728.1087"/><text fill="#9E9E9E" font-family="Verdana" font-size="12" lengthAdjust="spacing" textLength="113.9297" x="958.04" y="748.2474">Voltage Monitoring</text></g><!--entity RP--><g class="entity" data-qualified-name="GA.RP" data-source-line="58" id="ent0021"><rect fill="#F5F5F5" height="43.9688" rx="2.5" ry="2.5" style="stroke:#E0E0E0;stroke-width:1;" width="157.7969" x="764.1" y="889.0787"/><rect fill="#F5F5F5" height="10" style="stroke:#E0E0E0;stroke-width:1;" width="15" x="901.8969" y="894.0787"/><rect fill="#F5F5F5" height="2" style="stroke:#E0E0E0;stroke-width:1;" width="4" x="899.8969" y="896.0787"/><rect fill="#F5F5F5" height="2" style="stroke:#E0E0E0;stroke-width:1;" width="4" x="899.8969" y="900.0787"/><text fill="#9E9E9E" font-family="Verdana" font-size="12" lengthAdjust="spacing" textLength="117.7969" x="779.1" y="920.2174">Revenue Protection</text></g><!--entity EM--><g class="entity" data-qualified-name="API.EM" data-source-line="62" id="ent0023"><rect fill="#F5F5F5" height="43.9688" rx="2.5" ry="2.5" style="stroke:#E0E0E0;stroke-width:1;" width="86.3887" x="341.81" y="889.0787"/><rect fill="#F5F5F5" height="10" style="stroke:#E0E0E0;stroke-width:1;" width="15" x="408.1987" y="894.0787"/><rect fill="#F5F5F5" height="2" style="stroke:#E0E0E0;stroke-width:1;" width="4" x="406.1987" y="896.0787"/><rect fill="#F5F5F5" height="2" style="stroke:#E0E0E0;stroke-width:1;" width="4" x="406.1987" y="900.0787"/><text fill="#9E9E9E" font-family="Verdana" font-size="12" lengthAdjust="spacing" textLength="46.3887" x="356.81" y="920.2174">/meters</text></g><!--entity ER--><g class="entity" data-qualified-name="API.ER" data-source-line="63" id="ent0024"><rect fill="#F5F5F5" height="43.9688" rx="2.5" ry="2.5" style="stroke:#E0E0E0;stroke-width:1;" width="96.1387" x="462.93" y="889.0787"/><rect fill="#F5F5F5" height="10" style="stroke:#E0E0E0;stroke-width:1;" width="15" x="539.0687" y="894.0787"/><rect fill="#F5F5F5" height="2" style="stroke:#E0E0E0;stroke-width:1;" width="4" x="537.0687" y="896.0787"/><rect fill="#F5F5F5" height="2" style="stroke:#E0E0E0;stroke-width:1;" width="4" x="537.0687" y="900.0787"/><text fill="#9E9E9E" font-family="Verdana" font-size="12" lengthAdjust="spacing" textLength="56.1387" x="477.93" y="920.2174">/readings</text></g><!--entity EU--><g class="entity" data-qualified-name="API.EU" data-source-line="64" id="ent0025"><rect fill="#F5F5F5" height="43.9688" rx="2.5" ry="2.5" style="stroke:#E0E0E0;stroke-width:1;" width="121.4395" x="314.28" y="993.0487"/><rect fill="#F5F5F5" height="10" style="stroke:#E0E0E0;stroke-width:1;" width="15" x="415.7195" y="998.0487"/><rect fill="#F5F5F5" height="2" style="stroke:#E0E0E0;stroke-width:1;" width="4" x="413.7195" y="1000.0487"/><rect fill="#F5F5F5" height="2" style="stroke:#E0E0E0;stroke-width:1;" width="4" x="413.7195" y="1004.0487"/><text fill="#9E9E9E" font-family="Verdana" font-size="12" lengthAdjust="spacing" textLength="81.4395" x="329.28" y="1024.1874">/usage-points</text></g><!--entity EA--><g class="entity" data-qualified-name="API.EA" data-source-line="65" id="ent0026"><rect fill="#F5F5F5" height="43.9688" rx="2.5" ry="2.5" style="stroke:#E0E0E0;stroke-width:1;" width="97.6797" x="471.16" y="993.0487"/><rect fill="#F5F5F5" height="10" style="stroke:#E0E0E0;stroke-width:1;" width="15" x="548.8397" y="998.0487"/><rect fill="#F5F5F5" height="2" style="stroke:#E0E0E0;stroke-width:1;" width="4" x="546.8397" y="1000.0487"/><rect fill="#F5F5F5" height="2" style="stroke:#E0E0E0;stroke-width:1;" width="4" x="546.8397" y="1004.0487"/><text fill="#9E9E9E" font-family="Verdana" font-size="12" lengthAdjust="spacing" textLength="57.6797" x="486.16" y="1024.1874">/analytics</text></g><!--entity Client--><g class="entity" data-qualified-name="Client" data-source-line="68" id="ent0027"><ellipse cx="289.9984" cy="710.0288" fill="#EEEEEE" rx="8" ry="8" style="stroke:#BDBDBD;stroke-width:1;"/><path d="M289.9984,718.0288 L289.9984,745.0288 M276.9984,726.0288 L302.9984,726.0288 M289.9984,745.0288 L276.9984,760.0288 M289.9984,745.0288 L302.9984,760.0288" fill="none" style="stroke:#BDBDBD;stroke-width:1;"/><text fill="#000000" font-family="Verdana" font-size="13" lengthAdjust="spacing" textLength="121.1768" x="229.41" y="774.0956">Client Applications</text></g><!--link E350 to RF--><g class="link" data-entity-1="ent0003" data-entity-2="ent0008" data-link-type="dependency" data-source-line="70" id="lnk28"><path d="M272,195.3388 C272,218.7887 272,242.8488 272,262.7587" fill="none" id="E350-to-RF" style="stroke:#43A047;stroke-width:1;"/><polygon fill="#43A047" points="272,268.7587,276,259.7587,272,263.7587,268,259.7587,272,268.7587" style="stroke:#43A047;stroke-width:1;"/></g><!--link E360 to LTE--><g class="link" data-entity-1="ent0004" data-entity-2="ent0010" data-link-type="dependency" data-source-line="71" id="lnk29"><path d="M800.37,195.5487 C787.78,204.1487 773.78,212.6987 760,219.1287 C694.71,249.5587 619.6498,268.1437 566.7098,278.9037" fill="none" id="E360-to-LTE" style="stroke:#43A047;stroke-width:1;"/><polygon fill="#43A047" points="560.83,280.0988,570.4464,282.226,565.7298,279.1029,568.853,274.3863,560.83,280.0988" style="stroke:#43A047;stroke-width:1;"/></g><!--link S4x to LTE--><g class="link" data-entity-1="ent0005" data-entity-2="ent0010" data-link-type="dependency" data-source-line="72" id="lnk30"><path d="M475.82,195.3388 C483.04,218.7887 490.5345,243.1144 496.6645,263.0244" fill="none" id="S4x-to-LTE" style="stroke:#43A047;stroke-width:1;"/><polygon fill="#43A047" points="498.43,268.7587,499.6046,258.9802,496.9587,263.9801,491.9588,261.3342,498.43,268.7587" style="stroke:#43A047;stroke-width:1;"/></g><!--link E660 to LTE--><g class="link" data-entity-1="ent0006" data-entity-2="ent0010" data-link-type="dependency" data-source-line="73" id="lnk31"><path d="M619.51,195.3388 C591.18,218.7887 559.4717,245.0226 535.4217,264.9326" fill="none" id="E660-to-LTE" style="stroke:#43A047;stroke-width:1;"/><polygon fill="#43A047" points="530.8,268.7587,540.2834,266.1007,534.6515,265.5703,535.1819,259.9384,530.8,268.7587" style="stroke:#43A047;stroke-width:1;"/></g><!--link E350 to PLC--><g class="link" data-entity-1="ent0003" data-entity-2="ent0009" data-link-type="dependency" data-source-line="74" id="lnk32"><path d="M306.38,195.3287 C315.87,205.4087 326.02,216.5287 335,227.1287 C346.38,240.5487 354.8156,251.4722 363.9656,263.8622" fill="none" id="E350-to-PLC" style="stroke:#43A047;stroke-width:1;"/><polygon fill="#43A047" points="367.53,268.6887,365.4011,259.0727,364.5597,264.6667,358.9658,263.8252,367.53,268.6887" style="stroke:#43A047;stroke-width:1;"/></g><!--link RF to HES--><g class="link" data-entity-1="ent0008" data-entity-2="ent0011" data-link-type="dependency" data-source-line="76" id="lnk33"><path d="M296.9,313.4087 C307.73,321.7887 320.91,330.8688 334,337.0888 C346.46,343.0187 354.61,334.9788 364,345.0888 C367.8225,349.2088 370.992,353.8439 373.6114,358.8051 C373.9388,359.4252 371.6055,354.6684 371.916,355.2984" fill="none" id="RF-to-HES" style="stroke:#BDBDBD;stroke-width:1;"/><polygon fill="#BDBDBD" points="374.5681,360.6804,374.1779,350.8393,372.358,356.1954,367.0019,354.3755,374.5681,360.6804" style="stroke:#BDBDBD;stroke-width:1;"/></g><!--link PLC to HES--><g class="link" data-entity-1="ent0009" data-entity-2="ent0011" data-link-type="dependency" data-source-line="77" id="lnk34"><path d="M383,313.5187 C383,323.9287 383,337.2431 383,351.4019 C383,353.1717 383,354.9548 383,356.747 C383,357.6431 383,358.5415 383,359.4416 C383,359.8917 383,354.3423 383,354.7932" fill="none" id="PLC-to-HES" style="stroke:#BDBDBD;stroke-width:1;"/><polygon fill="#BDBDBD" points="383,360.7932,387,351.7932,383,355.7932,379,351.7932,383,360.7932" style="stroke:#BDBDBD;stroke-width:1;"/></g><!--link LTE to HES--><g class="link" data-entity-1="ent0010" data-entity-2="ent0011" data-link-type="dependency" data-source-line="78" id="lnk35"><path d="M488.04,313.5187 C471.54,334.3387 445.8375,366.7762 423.9875,394.3512 C413.0625,408.1387 403.1006,420.7106 395.7338,430.0069 C394.8129,431.1689 393.9326,432.2798 393.096,433.3354 C392.6777,433.8632 392.2704,434.3772 391.8743,434.877 C391.6763,435.1268 391.4811,435.3731 391.2888,435.6157 C391.1927,435.7371 394.8239,431.1551 394.7292,431.2746" fill="none" id="LTE-to-HES" style="stroke:#BDBDBD;stroke-width:1;"/><polygon fill="#BDBDBD" points="391.0026,435.977,399.7274,431.4079,394.1081,432.0584,393.4577,426.439,391.0026,435.977" style="stroke:#BDBDBD;stroke-width:1;"/></g><!--link HES to MDM--><g class="link" data-entity-1="ent0011" data-entity-2="ent0014" data-link-type="dependency" data-source-line="80" id="lnk36"><path d="M383,493.0594 C383,493.347 383,493.6354 383,493.9247 C383,494.5031 383,495.0846 383,495.6691 C383,498.0069 383,500.392 383,502.8147 C383,507.6602 383,512.6565 383,517.7282 C383,520.264 383,522.8187 383,525.3828 C383,526.6648 383,527.9492 383,529.2347 C383,529.8775 383,530.5206 383,531.1638 C383,531.4854 383,531.8071 383,532.1287 C383,532.2896 383,532.4504 383,532.6112 C383,532.6917 383,532.7721 383,532.8525 C383,532.8927 383,526.9329 383,526.9731" fill="none" id="HES-to-MDM" style="stroke:#BDBDBD;stroke-width:1;"/><polygon fill="#BDBDBD" points="383,532.9731,387,523.9731,383,527.9731,379,523.9731,383,532.9731" style="stroke:#BDBDBD;stroke-width:1;"/></g><!--link MDM to GA--><g class="link" data-entity-1="ent0014" data-entity-2="ent0018" data-link-type="dependency" data-source-line="81" id="lnk37"><path d="M681.2605,658.6103 C681.3992,658.7167 681.5375,658.8236 681.6755,658.931 C682.2274,659.3606 682.774,659.7979 683.3154,660.2424 C684.3983,661.1315 685.4602,662.0497 686.5014,662.9941 C690.666,666.7717 694.4986,670.9677 698.0103,675.3905 C705.0338,684.2359 710.7738,693.9881 715.32,703.1125 C716.4566,705.3936 717.5185,707.6354 718.5073,709.8141 C719.0016,710.9034 719.4777,711.9769 719.9356,713.0316 C720.1646,713.559 720.3891,714.0817 720.609,714.5992 C720.719,714.858 718.5025,709.5845 718.6102,709.8407" fill="none" id="MDM-to-GA" style="stroke:#BDBDBD;stroke-width:1;"/><polygon fill="#BDBDBD" points="720.9355,715.3718,721.1349,705.5249,718.9977,710.7625,713.7601,708.6254,720.9355,715.3718" style="stroke:#BDBDBD;stroke-width:1;"/></g><!--link HES to GA--><g class="link" data-entity-1="ent0011" data-entity-2="ent0018" data-link-type="dependency" data-source-line="82" id="lnk38"><path d="M391.0236,448.8724 C391.3923,448.9104 391.7728,448.9497 392.1647,448.9905 C392.9486,449.0719 393.7786,449.1588 394.6531,449.2512 C401.6488,449.99 411.4904,451.0778 423.3414,452.5175 C447.0434,455.3969 478.7831,459.6837 511.8688,465.4012 C578.04,476.8362 649.595,493.9937 673,517.0587 C708.525,552.0737 722.645,606.1663 727.825,652.075 C728.4725,657.8136 728.5477,657.4399 728.9402,662.8695" fill="none" id="HES-to-GA" style="stroke:#BDBDBD;stroke-width:1;"/><polygon fill="#BDBDBD" points="729.3728,668.8539,732.7135,659.589,729.0123,663.8669,724.7343,660.1657,729.3728,668.8539" style="stroke:#BDBDBD;stroke-width:1;"/></g><!--link HES to API--><g class="link" data-entity-1="ent0011" data-entity-2="ent0022" data-link-type="dependency" data-source-line="83" id="lnk39"><path d="M372.4437,493.0879 C372.4019,493.1903 372.3599,493.2926 372.3177,493.3948 C372.2333,493.5993 372.1483,493.8036 372.0627,494.0077 C371.8914,494.4158 371.7175,494.823 371.5411,495.2291 C370.8352,496.8534 370.0877,498.46 369.2961,500.0374 C367.713,503.1922 365.9538,506.23 364,509.0587 C304.99,594.5288 225.48,559.7388 180,653.1087 C151.2,712.2388 154.69,740.3788 180,801.0787 C193.035,832.3438 219.885,859.2338 243.7938,878.4813 C255.7481,888.105 266.9672,895.8181 275.3564,901.2122 C277.4537,902.5607 279.3742,903.7643 281.085,904.8165 C281.2989,904.9481 276.3913,901.946 276.5985,902.0728" fill="none" id="HES-to-API" style="stroke:#BDBDBD;stroke-width:1;"/><polygon fill="#BDBDBD" points="281.7167,905.204,276.127,897.095,277.4516,902.5946,271.952,903.9192,281.7167,905.204" style="stroke:#BDBDBD;stroke-width:1;"/></g><!--link MDM to API--><g class="link" data-entity-1="ent0014" data-entity-2="ent0022" data-link-type="dependency" data-source-line="84" id="lnk40"><path d="M374.8562,620.3087 C374.7168,620.3141 374.5757,620.3195 374.4331,620.325 C374.1478,620.3361 373.8562,620.3476 373.5583,620.3595 C372.9626,620.3832 372.3421,620.4086 371.6977,620.4357 C370.4089,620.4898 369.0245,620.5507 367.5524,620.6192 C364.6083,620.756 361.3132,620.9228 357.7297,621.125 C343.3956,621.9337 324.4462,623.3087 304.8775,625.5988 C265.74,630.1788 224.125,638.4187 212,653.1087 C170.14,703.8387 191.9,738.4688 212,801.0787 C220.96,828.9937 239.995,855.8313 257.0175,875.89 C265.5287,885.9194 273.5369,894.2541 279.5309,900.1814 C280.2802,900.9223 280.998,901.6256 281.6814,902.2899 C281.7668,902.373 277.5451,898.2777 277.6294,898.3595" fill="none" id="MDM-to-API" style="stroke:#BDBDBD;stroke-width:1;"/><polygon fill="#BDBDBD" points="281.936,902.5372,278.2612,893.3996,278.3472,899.0558,272.691,899.1417,281.936,902.5372" style="stroke:#BDBDBD;stroke-width:1;"/></g><!--link GA to API--><g class="link" data-entity-1="ent0018" data-entity-2="ent0022" data-link-type="dependency" data-source-line="85" id="lnk41"><path d="M720.9374,754.1159 C720.8271,754.2896 720.7157,754.4645 720.6033,754.6403 C720.1536,755.3438 719.6871,756.0637 719.2042,756.7979 C717.2724,759.7348 715.0772,762.9012 712.6388,766.1612 C702.885,779.2013 689.24,793.7388 673,801.0787 C654.01,809.6687 313.15,794.7788 298,809.0787 C281.885,824.2887 279.695,848.9912 281.6263,870.1575 C281.6866,870.8189 281.751,871.4769 281.8191,872.1311 C281.8531,872.4581 281.8881,872.7843 281.924,873.1094 C281.9419,873.2719 281.2838,867.4724 281.3022,867.6345" fill="none" id="GA-to-API" style="stroke:#BDBDBD;stroke-width:1;"/><polygon fill="#BDBDBD" points="281.9785,873.5962,284.9386,864.2027,281.4149,868.6281,276.9896,865.1044,281.9785,873.5962" style="stroke:#BDBDBD;stroke-width:1;"/></g><!--link Client to API--><g class="link" data-entity-1="ent0027" data-entity-2="ent0022" data-link-type="dependency" data-source-line="86" id="lnk42"><path d="M290,777.3988 C290,789.7113 290,803.9981 290,818.542 C290,820.36 290,822.182 290,824.0047 C290,824.2325 290,818.4604 290,818.6882" fill="none" id="Client-to-API" style="stroke:#BDBDBD;stroke-width:1;"/><polygon fill="#BDBDBD" points="290,824.6882,294,815.6882,290,819.6882,286,815.6882,290,824.6882" style="stroke:#BDBDBD;stroke-width:1;"/></g><?plantuml-src dLJTRXCv5BwVf_2ssbrMg9lV1YXLfEba9etKi57IxGtbmXsVfbOzziZZT0a8n1LFmBjmpmlm3Zp97l-aIPXG2U94Otzdydtd-7psR-O62Y2be5n6aU5603c-wiyCbAHrHCwePBnwF5ngCWO3ccG2m1mthlgNyfZtCmw24GPtF8UAVFlmYI0TOTHGKgc5pk6umVjHLDroML9D2t95yzkvLWl94YMK9ljPQiV66mokwKAOJ4apus-0j3fHz2Vvzka3VidfQ7XwXh_pT72qcL28Rz18nO2yZGX-JhxNJ9js-9ZI37J0JmPsEDpA1_HPQiSzwfFgHkysn7AX5ko7QkxpasfRxAeebGHfWi8wY_O3kTRoo0xjgESHTcDJaUO68xzMpxieSdk_DokeDhv9rHwXLPWYmTFiC7tsN709H-tqoQ3JVcxWjJbgdHocxMQGVOacJ3k7JMirCeMACzm0JiMbR7tzY9KtByYNprYwBaXxvhpuljlydQXhSkqTolklhAZb8Fl9qxIN1Cbk9svsdso8zBn8pEwep85jAvoTfvwzivkzzp3xhFkwaVP26SaVeqlPGV9srvDFb5YMDxG2Bz7U9O4C3-VVwpKRKxW3ePp8I9rlYmmrPmSfcmUHriuwUZ-e0xlfpRsNgA9OI9vJmvKaBy3yf_IjwwkDhBespR3DrOqZdMOUcvmbRerF3oGWn49GRJVNHV2vzetDjp8Qq8UdARRsqIbGB40oCbjM1eg_d2Y6Lfe3UzsW2GNaDZV7E0XI_euOoJjqZz9B5nkFrcA9qa36Wx7LyUywjl6yC5u7OokT2oeue_SIkFHuMXbUh75S1fnnm-NSWpZVMM8igLWQdliZCeplYu82hruVhdZbYuf38aeOEiUybUHOrKhZOXnwW6QG2o0JhSp6bamdwmIcwUoSn1EquwECLWPdv37vfmHfPvs_MxvskmZfD0ftU7qjGQU11J0K3-Wqe8iASpie5PScHFuD4RggrSEnpSTVDNk9uFQ2YyjI18lv3V5u5BbZVF1otzlorK7VkikTlYtG6iaUc1he35v7QwpMen6Q645_draGlHPXe0uYHnsCh3MtKFHGP7sq1GxZ-ekxC6n2_SyMHA_KiB2Dt-F_0m00?></g></svg>