<?plantuml 1.2026.2beta3?><svg xmlns="http://www.w3.org/2000/svg" xmlns:xlink="http://www.w3.org/1999/xlink" contentStyleType="text/css" data-diagram-type="DESCRIPTION" height="1184px" preserveAspectRatio="none" style="width:1661px;height:1184px;background:#FEFEFE;" version="1.1" viewBox="0 0 1661 1184" width="1661px" zoomAndPan="magnify"><title>&lt;b&gt;Step 7: Integrating with Utility Systems&lt;/b&gt;
&lt;i&gt;Where consuming applications connect&lt;/i&gt;</title><defs/><g><rect fill="#FEFEFE" height="1184" style="stroke:none;stroke-width:1;" width="1661" x="0" y="0"/><g class="title" data-source-line="3"><text fill="#000000" font-family="Verdana" font-size="22" font-weight="bold" lengthAdjust="spacing" textLength="494.2695" x="579.1902" y="35.4209">Step 7: Integrating with Utility Systems</text><text fill="#000000" font-family="Verdana" font-size="22" font-style="italic" font-weight="bold" lengthAdjust="spacing" textLength="487.2441" x="582.7029" y="61.0303">Where consuming applications connect</text></g><!--cluster Meters--><g class="cluster" data-qualified-name="Meters" data-source-line="15" id="ent0002"><polygon fill="#E8F5E9" points="973.65,93.2188,983.65,83.2188,1644.65,83.2188,1644.65,173.1887,1634.65,183.1887,973.65,183.1887,973.65,93.2188" style="stroke:#66BB6A;stroke-width:1;"/><line style="stroke:#66BB6A;stroke-width:1;" x1="1634.65" x2="1644.65" y1="93.2188" y2="83.2188"/><line style="stroke:#66BB6A;stroke-width:1;" x1="973.65" x2="1634.65" y1="93.2188" y2="93.2188"/><line style="stroke:#66BB6A;stroke-width:1;" x1="1634.65" x2="1634.65" y1="93.2188" y2="183.1887"/><text fill="#2E7D32" font-family="Verdana" font-size="14" font-weight="bold" lengthAdjust="spacing" textLength="107.4404" x="1251.4298" y="109.2139">Smart Meters</text></g><!--cluster Comm--><g class="cluster" data-qualified-name="Comm" data-source-line="22" id="ent0007"><path d="M1007.6373,227.4451 C1015.4734,213.7389 1023.9245,213.8242 1034.4559,224.4777 C1041.2543,212.0882 1051.8297,215.5537 1057.634,225.5089 C1065.9211,214.5118 1073.3856,212.061 1082.0347,225.1421 C1089.4438,211.1279 1100.6102,212.1435 1107.9352,225.2224 C1116.4808,212.863 1125.3713,214.1863 1134.2567,224.8336 C1140.4163,211.8309 1150.0642,213.034 1157.8817,223.1384 C1167.8197,212.9269 1176.6439,214.2146 1183.4017,226.7121 C1188.07,212.5786 1199.521,212.5475 1207.9844,222.9025 C1215.7488,212.4016 1226.9154,211.3695 1233.6312,224.062 C1241.0294,212.9175 1251.8765,211.0487 1258.6215,224.7198 C1264.8404,213.8498 1275.4573,212.6856 1281.8531,224.539 C1289.1806,212.3258 1301.5627,211.8022 1308.387,225.0631 C1315.7555,211.8119 1327.6015,210.2714 1335.9124,224.1055 C1343.6283,214.801 1353.8005,216.0424 1358.6245,227.3 C1380.3522,231.8363 1382.7768,250.2384 1369.6869,264.9932 C1384.4741,283.6806 1379.5063,296.7414 1356.7248,302.4164 C1351.2135,313.8323 1342.659,316.5916 1334.2192,305.3217 C1326.6703,317.4164 1316.9938,320.5525 1306.6846,308.4648 C1299.8466,320.3333 1290.285,317.7692 1283.5881,308.3121 C1277.3297,321.065 1264.4574,320.0545 1257.0058,309.6839 C1251.0726,321.8534 1240.5203,322.6551 1233.9045,310.3276 C1227.7456,321.9738 1216.1932,322.1107 1208.4611,312.1829 C1201.6079,322.678 1193.4868,323.6215 1185.4621,313.4891 C1177.732,323.9419 1167.7353,324.6774 1160.0959,313.3833 C1150.1558,325.8232 1139.6548,325.5035 1132.7441,310.3775 C1125.7916,320.7077 1116.6023,323.4509 1109.05,311.0013 C1100.1045,322.2211 1090.1587,319.2943 1083.9024,307.9979 C1077.121,318.0096 1065.3074,317.2961 1059.7874,306.5336 C1050.7826,318.9353 1043.405,316.4622 1035.7358,305.1774 C1028.7738,316.7587 1018.8843,316.2951 1011.0785,306.1342 C989.4385,298.8563 989.4982,280.0211 1005.119,267.0602 C988.9802,255.8852 988.1234,236.3537 1007.6373,227.4451" fill="#E3F2FD" style="stroke:#64B5F6;stroke-width:1;"/><text fill="#1565C0" font-family="Verdana" font-size="13" font-weight="bold" lengthAdjust="spacing" textLength="180.2988" x="1091.5006" y="241.2556">Communication Network</text></g><!--cluster HES--><g class="cluster" data-qualified-name="HES" data-source-line="28" id="ent0011"><polygon fill="#FFF3E0" points="808.65,361.1587,818.65,351.1587,1178.65,351.1587,1178.65,473.1188,1168.65,483.1188,808.65,483.1188,808.65,361.1587" style="stroke:#FFA726;stroke-width:1;"/><line style="stroke:#FFA726;stroke-width:1;" x1="1168.65" x2="1178.65" y1="361.1587" y2="351.1587"/><line style="stroke:#FFA726;stroke-width:1;" x1="808.65" x2="1168.65" y1="361.1587" y2="361.1587"/><line style="stroke:#FFA726;stroke-width:1;" x1="1168.65" x2="1168.65" y1="361.1587" y2="483.1188"/><text fill="#E65100" font-family="Verdana" font-size="14" font-weight="bold" lengthAdjust="spacing" textLength="124.9131" x="927.1935" y="377.1539">Gridstream HES</text><text fill="#E65100" font-family="Verdana" font-size="14" font-weight="bold" lengthAdjust="spacing" textLength="152.0313" x="913.6344" y="393.4507">(Head-End System)</text></g><!--cluster MDM--><g class="cluster" data-qualified-name="MDM" data-source-line="33" id="ent0014"><polygon fill="#E8F5E9" points="711.65,558.1188,721.65,548.1188,1017.65,548.1188,1017.65,833.0587,1007.65,843.0587,711.65,843.0587,711.65,558.1188" style="stroke:#43A047;stroke-width:1;"/><line style="stroke:#43A047;stroke-width:1;" x1="1007.65" x2="1017.65" y1="558.1188" y2="548.1188"/><line style="stroke:#43A047;stroke-width:1;" x1="711.65" x2="1007.65" y1="558.1188" y2="558.1188"/><line style="stroke:#43A047;stroke-width:1;" x1="1007.65" x2="1007.65" y1="558.1188" y2="843.0587"/><text fill="#1B5E20" font-family="Verdana" font-size="14" font-weight="bold" lengthAdjust="spacing" textLength="90.7334" x="815.2833" y="574.1139">Core MDMS</text><text fill="#1B5E20" font-family="Verdana" font-size="14" font-weight="bold" lengthAdjust="spacing" textLength="151.5049" x="784.8976" y="590.4107">(Meter Data Mgmt)</text></g><!--cluster GA--><g class="cluster" data-qualified-name="GA" data-source-line="39" id="ent0018"><polygon fill="#EDE7F6" points="1104.65,737.0887,1114.65,727.0887,1504.65,727.0887,1504.65,1034.8088,1494.65,1044.8088,1104.65,1044.8088,1104.65,737.0887" style="stroke:#7E57C2;stroke-width:1;"/><line style="stroke:#7E57C2;stroke-width:1;" x1="1494.65" x2="1504.65" y1="737.0887" y2="727.0887"/><line style="stroke:#7E57C2;stroke-width:1;" x1="1104.65" x2="1494.65" y1="737.0887" y2="737.0887"/><line style="stroke:#7E57C2;stroke-width:1;" x1="1494.65" x2="1494.65" y1="737.0887" y2="1044.8088"/><text fill="#4A148C" font-family="Verdana" font-size="14" font-weight="bold" lengthAdjust="spacing" textLength="165.8467" x="1217.7267" y="753.0839">Gridstream Analytics</text></g><!--cluster API--><g class="cluster" data-qualified-name="API" data-source-line="45" id="ent0022"><polygon fill="#FFEBEE" points="538.65,922.8387,548.65,912.8387,849.65,912.8387,849.65,1157.7788,839.65,1167.7788,538.65,1167.7788,538.65,922.8387" style="stroke:#C62828;stroke-width:1;"/><line style="stroke:#C62828;stroke-width:1;" x1="839.65" x2="849.65" y1="922.8387" y2="912.8387"/><line style="stroke:#C62828;stroke-width:1;" x1="538.65" x2="839.65" y1="922.8387" y2="922.8387"/><line style="stroke:#C62828;stroke-width:1;" x1="839.65" x2="839.65" y1="922.8387" y2="1167.7788"/><text fill="#B71C1C" font-family="Verdana" font-size="14" font-weight="bold" lengthAdjust="spacing" textLength="71.1553" x="654.5724" y="938.8339">REST API</text><text fill="#B71C1C" font-family="Verdana" font-size="14" font-weight="bold" lengthAdjust="spacing" textLength="191.9805" x="594.1598" y="955.1307">(FastAPI + OpenAPI 3.1)</text></g><!--entity E350--><g class="entity" data-qualified-name="Meters.E350" data-source-line="16" id="ent0003"><rect fill="#C8E6C9" height="43.9688" rx="2.5" ry="2.5" style="stroke:#66BB6A;stroke-width:1;" width="140.9395" x="989.18" y="123.2188"/><rect fill="#C8E6C9" height="10" style="stroke:#66BB6A;stroke-width:1;" width="15" x="1110.1195" y="128.2188"/><rect fill="#C8E6C9" height="2" style="stroke:#66BB6A;stroke-width:1;" width="4" x="1108.1195" y="130.2188"/><rect fill="#C8E6C9" height="2" style="stroke:#66BB6A;stroke-width:1;" width="4" x="1108.1195" y="134.2188"/><text fill="#000000" font-family="Verdana" font-size="12" lengthAdjust="spacing" textLength="100.9395" x="1004.18" y="154.3574">E350 Residential</text></g><!--entity E360--><g class="entity" data-qualified-name="Meters.E360" data-source-line="17" id="ent0004"><rect fill="#C8E6C9" height="43.9688" rx="2.5" ry="2.5" style="stroke:#66BB6A;stroke-width:1;" width="133.7852" x="1494.75" y="123.2188"/><rect fill="#C8E6C9" height="10" style="stroke:#66BB6A;stroke-width:1;" width="15" x="1608.5352" y="128.2188"/><rect fill="#C8E6C9" height="2" style="stroke:#66BB6A;stroke-width:1;" width="4" x="1606.5352" y="130.2188"/><rect fill="#C8E6C9" height="2" style="stroke:#66BB6A;stroke-width:1;" width="4" x="1606.5352" y="134.2188"/><text fill="#000000" font-family="Verdana" font-size="12" lengthAdjust="spacing" textLength="93.7852" x="1509.75" y="154.3574">E360 Advanced</text></g><!--entity S4x--><g class="entity" data-qualified-name="Meters.S4x" data-source-line="18" id="ent0005"><rect fill="#C8E6C9" height="43.9688" rx="2.5" ry="2.5" style="stroke:#66BB6A;stroke-width:1;" width="121.9727" x="1164.66" y="123.2188"/><rect fill="#C8E6C9" height="10" style="stroke:#66BB6A;stroke-width:1;" width="15" x="1266.6327" y="128.2188"/><rect fill="#C8E6C9" height="2" style="stroke:#66BB6A;stroke-width:1;" width="4" x="1264.6327" y="130.2188"/><rect fill="#C8E6C9" height="2" style="stroke:#66BB6A;stroke-width:1;" width="4" x="1264.6327" y="134.2188"/><text fill="#000000" font-family="Verdana" font-size="12" lengthAdjust="spacing" textLength="81.9727" x="1179.66" y="154.3574">S4x/E650 C&amp;I</text></g><!--entity E660--><g class="entity" data-qualified-name="Meters.E660" data-source-line="19" id="ent0006"><rect fill="#C8E6C9" height="43.9688" rx="2.5" ry="2.5" style="stroke:#66BB6A;stroke-width:1;" width="137.4355" x="1321.93" y="123.2188"/><rect fill="#C8E6C9" height="10" style="stroke:#66BB6A;stroke-width:1;" width="15" x="1439.3655" y="128.2188"/><rect fill="#C8E6C9" height="2" style="stroke:#66BB6A;stroke-width:1;" width="4" x="1437.3655" y="130.2188"/><rect fill="#C8E6C9" height="2" style="stroke:#66BB6A;stroke-width:1;" width="4" x="1437.3655" y="134.2188"/><text fill="#000000" font-family="Verdana" font-size="12" lengthAdjust="spacing" textLength="97.4355" x="1336.93" y="154.3574">E660/Revelo IoT</text></g><!--entity RF--><g class="entity" data-qualified-name="Comm.RF" data-source-line="23" id="ent0008"><rect fill="#BBDEFB" height="43.9688" rx="2.5" ry="2.5" style="stroke:#64B5F6;stroke-width:1;" width="90.6484" x="1014.32" y="250.1887"/><rect fill="#BBDEFB" height="10" style="stroke:#64B5F6;stroke-width:1;" width="15" x="1084.9684" y="255.1887"/><rect fill="#BBDEFB" height="2" style="stroke:#64B5F6;stroke-width:1;" width="4" x="1082.9684" y="257.1887"/><rect fill="#BBDEFB" height="2" style="stroke:#64B5F6;stroke-width:1;" width="4" x="1082.9684" y="261.1887"/><text fill="#000000" font-family="Verdana" font-size="12" lengthAdjust="spacing" textLength="50.6484" x="1029.32" y="281.3274">RF Mesh</text></g><!--entity PLC--><g class="entity" data-qualified-name="Comm.PLC" data-source-line="24" id="ent0009"><rect fill="#BBDEFB" height="43.9688" rx="2.5" ry="2.5" style="stroke:#64B5F6;stroke-width:1;" width="62.3008" x="1139.5" y="250.1887"/><rect fill="#BBDEFB" height="10" style="stroke:#64B5F6;stroke-width:1;" width="15" x="1181.8008" y="255.1887"/><rect fill="#BBDEFB" height="2" style="stroke:#64B5F6;stroke-width:1;" width="4" x="1179.8008" y="257.1887"/><rect fill="#BBDEFB" height="2" style="stroke:#64B5F6;stroke-width:1;" width="4" x="1179.8008" y="261.1887"/><text fill="#000000" font-family="Verdana" font-size="12" lengthAdjust="spacing" textLength="22.3008" x="1154.5" y="281.3274">PLC</text></g><!--entity LTE--><g class="entity" data-qualified-name="Comm.LTE" data-source-line="25" id="ent0010"><rect fill="#BBDEFB" height="43.9688" rx="2.5" ry="2.5" style="stroke:#64B5F6;stroke-width:1;" width="111.0684" x="1237.11" y="250.1887"/><rect fill="#BBDEFB" height="10" style="stroke:#64B5F6;stroke-width:1;" width="15" x="1328.1784" y="255.1887"/><rect fill="#BBDEFB" height="2" style="stroke:#64B5F6;stroke-width:1;" width="4" x="1326.1784" y="257.1887"/><rect fill="#BBDEFB" height="2" style="stroke:#64B5F6;stroke-width:1;" width="4" x="1326.1784" y="261.1887"/><text fill="#000000" font-family="Verdana" font-size="12" lengthAdjust="spacing" textLength="71.0684" x="1252.11" y="281.3274">Cellular LTE</text></g><!--entity DC--><g class="entity" data-qualified-name="HES.DC" data-source-line="29" id="ent0012"><rect fill="#FFE0B2" height="43.9688" rx="2.5" ry="2.5" style="stroke:#FFA726;stroke-width:1;" width="131.8223" x="832.73" y="415.1587"/><rect fill="#FFE0B2" height="10" style="stroke:#FFA726;stroke-width:1;" width="15" x="944.5523" y="420.1587"/><rect fill="#FFE0B2" height="2" style="stroke:#FFA726;stroke-width:1;" width="4" x="942.5523" y="422.1587"/><rect fill="#FFE0B2" height="2" style="stroke:#FFA726;stroke-width:1;" width="4" x="942.5523" y="426.1587"/><text fill="#000000" font-family="Verdana" font-size="12" lengthAdjust="spacing" textLength="91.8223" x="847.73" y="446.2974">Data Collection</text></g><!--entity MI--><g class="entity" data-qualified-name="HES.MI" data-source-line="30" id="ent0013"><rect fill="#FFE0B2" height="43.9688" rx="2.5" ry="2.5" style="stroke:#FFA726;stroke-width:1;" width="135.8887" x="999.7" y="415.1587"/><rect fill="#FFE0B2" height="10" style="stroke:#FFA726;stroke-width:1;" width="15" x="1115.5887" y="420.1587"/><rect fill="#FFE0B2" height="2" style="stroke:#FFA726;stroke-width:1;" width="4" x="1113.5887" y="422.1587"/><rect fill="#FFE0B2" height="2" style="stroke:#FFA726;stroke-width:1;" width="4" x="1113.5887" y="426.1587"/><text fill="#000000" font-family="Verdana" font-size="12" lengthAdjust="spacing" textLength="95.8887" x="1014.7" y="446.2974">Meter Inventory</text></g><!--entity Val--><g class="entity" data-qualified-name="MDM.Val" data-source-line="34" id="ent0015"><rect fill="#C8E6C9" height="43.9688" rx="2.5" ry="2.5" style="stroke:#43A047;stroke-width:1;" width="100.1875" x="754.55" y="612.1188"/><rect fill="#C8E6C9" height="10" style="stroke:#43A047;stroke-width:1;" width="15" x="834.7375" y="617.1188"/><rect fill="#C8E6C9" height="2" style="stroke:#43A047;stroke-width:1;" width="4" x="832.7375" y="619.1188"/><rect fill="#C8E6C9" height="2" style="stroke:#43A047;stroke-width:1;" width="4" x="832.7375" y="623.1188"/><text fill="#000000" font-family="Verdana" font-size="12" lengthAdjust="spacing" textLength="60.1875" x="769.55" y="643.2574">Validation</text></g><!--entity Est--><g class="entity" data-qualified-name="MDM.Est" data-source-line="35" id="ent0016"><rect fill="#C8E6C9" height="43.9688" rx="2.5" ry="2.5" style="stroke:#43A047;stroke-width:1;" width="103.9023" x="889.69" y="612.1188"/><rect fill="#C8E6C9" height="10" style="stroke:#43A047;stroke-width:1;" width="15" x="973.5923" y="617.1188"/><rect fill="#C8E6C9" height="2" style="stroke:#43A047;stroke-width:1;" width="4" x="971.5923" y="619.1188"/><rect fill="#C8E6C9" height="2" style="stroke:#43A047;stroke-width:1;" width="4" x="971.5923" y="623.1188"/><text fill="#000000" font-family="Verdana" font-size="12" lengthAdjust="spacing" textLength="63.9023" x="904.69" y="643.2574">Estimation</text></g><!--entity Edit--><g class="entity" data-qualified-name="MDM.Edit" data-source-line="36" id="ent0017"><rect fill="#C8E6C9" height="43.9688" rx="2.5" ry="2.5" style="stroke:#43A047;stroke-width:1;" width="81.7949" x="837.75" y="775.0887"/><rect fill="#C8E6C9" height="10" style="stroke:#43A047;stroke-width:1;" width="15" x="899.5449" y="780.0887"/><rect fill="#C8E6C9" height="2" style="stroke:#43A047;stroke-width:1;" width="4" x="897.5449" y="782.0887"/><rect fill="#C8E6C9" height="2" style="stroke:#43A047;stroke-width:1;" width="4" x="897.5449" y="786.0887"/><text fill="#000000" font-family="Verdana" font-size="12" lengthAdjust="spacing" textLength="41.7949" x="852.75" y="806.2274">Editing</text></g><!--entity DA--><g class="entity" data-qualified-name="GA.DA" data-source-line="40" id="ent0019"><rect fill="#D1C4E9" height="43.9688" rx="2.5" ry="2.5" style="stroke:#7E57C2;stroke-width:1;" width="144.1445" x="1147.57" y="775.0887"/><rect fill="#D1C4E9" height="10" style="stroke:#7E57C2;stroke-width:1;" width="15" x="1271.7145" y="780.0887"/><rect fill="#D1C4E9" height="2" style="stroke:#7E57C2;stroke-width:1;" width="4" x="1269.7145" y="782.0887"/><rect fill="#D1C4E9" height="2" style="stroke:#7E57C2;stroke-width:1;" width="4" x="1269.7145" y="786.0887"/><text fill="#000000" font-family="Verdana" font-size="12" lengthAdjust="spacing" textLength="104.1445" x="1162.57" y="806.2274">Demand Analysis</text></g><!--entity VM--><g class="entity" data-qualified-name="GA.VM" data-source-line="41" id="ent0020"><rect fill="#D1C4E9" height="43.9688" rx="2.5" ry="2.5" style="stroke:#7E57C2;stroke-width:1;" width="153.9297" x="1326.68" y="775.0887"/><rect fill="#D1C4E9" height="10" style="stroke:#7E57C2;stroke-width:1;" width="15" x="1460.6097" y="780.0887"/><rect fill="#D1C4E9" height="2" style="stroke:#7E57C2;stroke-width:1;" width="4" x="1458.6097" y="782.0887"/><rect fill="#D1C4E9" height="2" style="stroke:#7E57C2;stroke-width:1;" width="4" x="1458.6097" y="786.0887"/><text fill="#000000" font-family="Verdana" font-size="12" lengthAdjust="spacing" textLength="113.9297" x="1341.68" y="806.2274">Voltage Monitoring</text></g><!--entity RP--><g class="entity" data-qualified-name="GA.RP" data-source-line="42" id="ent0021"><rect fill="#D1C4E9" height="43.9688" rx="2.5" ry="2.5" style="stroke:#7E57C2;stroke-width:1;" width="157.7969" x="1147.75" y="976.8387"/><rect fill="#D1C4E9" height="10" style="stroke:#7E57C2;stroke-width:1;" width="15" x="1285.5469" y="981.8387"/><rect fill="#D1C4E9" height="2" style="stroke:#7E57C2;stroke-width:1;" width="4" x="1283.5469" y="983.8387"/><rect fill="#D1C4E9" height="2" style="stroke:#7E57C2;stroke-width:1;" width="4" x="1283.5469" y="987.8387"/><text fill="#000000" font-family="Verdana" font-size="12" lengthAdjust="spacing" textLength="117.7969" x="1162.75" y="1007.9774">Revenue Protection</text></g><!--entity EM--><g class="entity" data-qualified-name="API.EM" data-source-line="46" id="ent0023"><rect fill="#FFCDD2" height="43.9688" rx="2.5" ry="2.5" style="stroke:#E53935;stroke-width:1;" width="86.3887" x="603.45" y="976.8387"/><rect fill="#FFCDD2" height="10" style="stroke:#E53935;stroke-width:1;" width="15" x="669.8387" y="981.8387"/><rect fill="#FFCDD2" height="2" style="stroke:#E53935;stroke-width:1;" width="4" x="667.8387" y="983.8387"/><rect fill="#FFCDD2" height="2" style="stroke:#E53935;stroke-width:1;" width="4" x="667.8387" y="987.8387"/><text fill="#000000" font-family="Verdana" font-size="12" lengthAdjust="spacing" textLength="46.3887" x="618.45" y="1007.9774">/meters</text></g><!--entity ER--><g class="entity" data-qualified-name="API.ER" data-source-line="47" id="ent0024"><rect fill="#FFCDD2" height="43.9688" rx="2.5" ry="2.5" style="stroke:#E53935;stroke-width:1;" width="96.1387" x="724.58" y="976.8387"/><rect fill="#FFCDD2" height="10" style="stroke:#E53935;stroke-width:1;" width="15" x="800.7187" y="981.8387"/><rect fill="#FFCDD2" height="2" style="stroke:#E53935;stroke-width:1;" width="4" x="798.7187" y="983.8387"/><rect fill="#FFCDD2" height="2" style="stroke:#E53935;stroke-width:1;" width="4" x="798.7187" y="987.8387"/><text fill="#000000" font-family="Verdana" font-size="12" lengthAdjust="spacing" textLength="56.1387" x="739.58" y="1007.9774">/readings</text></g><!--entity EU--><g class="entity" data-qualified-name="API.EU" data-source-line="48" id="ent0025"><rect fill="#FFCDD2" height="43.9688" rx="2.5" ry="2.5" style="stroke:#E53935;stroke-width:1;" width="121.4395" x="570.93" y="1099.8088"/><rect fill="#FFCDD2" height="10" style="stroke:#E53935;stroke-width:1;" width="15" x="672.3695" y="1104.8088"/><rect fill="#FFCDD2" height="2" style="stroke:#E53935;stroke-width:1;" width="4" x="670.3695" y="1106.8088"/><rect fill="#FFCDD2" height="2" style="stroke:#E53935;stroke-width:1;" width="4" x="670.3695" y="1110.8088"/><text fill="#000000" font-family="Verdana" font-size="12" lengthAdjust="spacing" textLength="81.4395" x="585.93" y="1130.9474">/usage-points</text></g><!--entity EA--><g class="entity" data-qualified-name="API.EA" data-source-line="49" id="ent0026"><rect fill="#FFCDD2" height="43.9688" rx="2.5" ry="2.5" style="stroke:#E53935;stroke-width:1;" width="97.6797" x="727.81" y="1099.8088"/><rect fill="#FFCDD2" height="10" style="stroke:#E53935;stroke-width:1;" width="15" x="805.4897" y="1104.8088"/><rect fill="#FFCDD2" height="2" style="stroke:#E53935;stroke-width:1;" width="4" x="803.4897" y="1106.8088"/><rect fill="#FFCDD2" height="2" style="stroke:#E53935;stroke-width:1;" width="4" x="803.4897" y="1110.8088"/><text fill="#000000" font-family="Verdana" font-size="12" lengthAdjust="spacing" textLength="57.6797" x="742.81" y="1130.9474">/analytics</text></g><!--entity Billing--><g class="entity" data-qualified-name="Billing" data-source-line="52" id="ent0027"><ellipse cx="464.6492" cy="745.3087" fill="#FFF3E0" rx="8" ry="8" style="stroke:#E65100;stroke-width:1;"/><path d="M464.6492,753.3087 L464.6492,780.3087 M451.6492,761.3087 L477.6492,761.3087 M464.6492,780.3087 L451.6492,795.3087 M464.6492,780.3087 L477.6492,795.3087" fill="none" style="stroke:#E65100;stroke-width:1;"/><text fill="#BF360C" font-family="Verdana" font-size="13" font-weight="bold" lengthAdjust="spacing" textLength="104.9712" x="395.19" y="809.3756">Billing System</text><text fill="#BF360C" font-family="Verdana" font-size="13" lengthAdjust="spacing" textLength="31.3066" x="395.19" y="824.5085">(CIS)</text><text fill="#BF360C" font-family="Verdana" font-size="13" lengthAdjust="spacing" textLength="91.1777" x="395.19" y="839.6413">GET /readings</text><text fill="#BF360C" font-family="Verdana" font-size="13" lengthAdjust="spacing" textLength="138.9185" x="395.19" y="854.7741">?validated_only=true</text></g><!--entity Grid--><g class="entity" data-qualified-name="Grid" data-source-line="53" id="ent0028"><ellipse cx="628.6434" cy="745.3087" fill="#FFF3E0" rx="8" ry="8" style="stroke:#E65100;stroke-width:1;"/><path d="M628.6434,753.3087 L628.6434,780.3087 M615.6434,761.3087 L641.6434,761.3087 M628.6434,780.3087 L615.6434,795.3087 M628.6434,780.3087 L641.6434,795.3087" fill="none" style="stroke:#E65100;stroke-width:1;"/><text fill="#BF360C" font-family="Verdana" font-size="13" font-weight="bold" lengthAdjust="spacing" textLength="116.3208" x="569.15" y="809.3756">Grid Operations</text><text fill="#BF360C" font-family="Verdana" font-size="13" lengthAdjust="spacing" textLength="82.5957" x="569.15" y="824.5085">(OMS/ADMS)</text><text fill="#BF360C" font-family="Verdana" font-size="13" lengthAdjust="spacing" textLength="92.8472" x="569.15" y="839.6413">GET /analytics</text><text fill="#BF360C" font-family="Verdana" font-size="13" lengthAdjust="spacing" textLength="118.9868" x="569.15" y="854.7741">/voltage-summary</text></g><!--entity Portal--><g class="entity" data-qualified-name="Portal" data-source-line="54" id="ent0029"><ellipse cx="70.6458" cy="752.8788" fill="#FFF3E0" rx="8" ry="8" style="stroke:#E65100;stroke-width:1;"/><path d="M70.6458,760.8788 L70.6458,787.8788 M57.6458,768.8788 L83.6458,768.8788 M70.6458,787.8788 L57.6458,802.8788 M70.6458,787.8788 L83.6458,802.8788" fill="none" style="stroke:#E65100;stroke-width:1;"/><text fill="#BF360C" font-family="Verdana" font-size="13" font-weight="bold" lengthAdjust="spacing" textLength="119.2915" x="11" y="816.9456">Customer Portal</text><text fill="#BF360C" font-family="Verdana" font-size="13" lengthAdjust="spacing" textLength="118.5869" x="11" y="832.0785">GET /usage-points</text><text fill="#BF360C" font-family="Verdana" font-size="13" lengthAdjust="spacing" textLength="91.1777" x="11" y="847.2113">GET /readings</text></g><!--entity DERMS--><g class="entity" data-qualified-name="DERMS" data-source-line="55" id="ent0030"><ellipse cx="227.6428" cy="752.8788" fill="#FFF3E0" rx="8" ry="8" style="stroke:#E65100;stroke-width:1;"/><path d="M227.6428,760.8788 L227.6428,787.8788 M214.6428,768.8788 L240.6428,768.8788 M227.6428,787.8788 L214.6428,802.8788 M227.6428,787.8788 L240.6428,802.8788" fill="none" style="stroke:#E65100;stroke-width:1;"/><text fill="#BF360C" font-family="Verdana" font-size="13" font-weight="bold" lengthAdjust="spacing" textLength="51.981" x="165.75" y="816.9456">DERMS</text><text fill="#BF360C" font-family="Verdana" font-size="13" lengthAdjust="spacing" textLength="92.8472" x="165.75" y="832.0785">GET /analytics</text><text fill="#BF360C" font-family="Verdana" font-size="13" lengthAdjust="spacing" textLength="123.7856" x="165.75" y="847.2113">/demand-summary</text></g><!--link E350 to RF--><g class="link" data-entity-1="ent0003" data-entity-2="ent0008" data-link-type="dependency" data-source-line="57" id="lnk31"><path d="M1059.65,167.6788 C1059.65,190.7087 1059.65,221.0487 1059.65,243.9688" fill="none" id="E350-to-RF" style="stroke:#66BB6A;stroke-width:1;"/><polygon fill="#66BB6A" points="1059.65,249.9688,1063.65,240.9688,1059.65,244.9688,1055.65,240.9688,1059.65,249.9688" style="stroke:#66BB6A;stroke-width:1;"/></g><!--link E360 to LTE--><g class="link" data-entity-1="ent0004" data-entity-2="ent0010" data-link-type="dependency" data-source-line="58" id="lnk32"><path d="M1522.61,167.6688 C1508.28,175.3287 1491.84,183.8787 1476.65,191.1887 C1432.7,212.3287 1387.3243,231.9512 1350.2143,247.4912" fill="none" id="E360-to-LTE" style="stroke:#66BB6A;stroke-width:1;"/><polygon fill="#66BB6A" points="1344.68,249.8087,1354.5265,250.022,1349.292,247.8775,1351.4365,242.6429,1344.68,249.8087" style="stroke:#66BB6A;stroke-width:1;"/></g><!--link S4x to LTE--><g class="link" data-entity-1="ent0005" data-entity-2="ent0010" data-link-type="dependency" data-source-line="59" id="lnk33"><path d="M1237.16,167.6788 C1249.51,190.7087 1266.1546,221.761 1278.4446,244.681" fill="none" id="S4x-to-LTE" style="stroke:#66BB6A;stroke-width:1;"/><polygon fill="#66BB6A" points="1281.28,249.9688,1280.5521,240.1468,1278.9172,245.5623,1273.5017,243.9273,1281.28,249.9688" style="stroke:#66BB6A;stroke-width:1;"/></g><!--link E660 to LTE--><g class="link" data-entity-1="ent0006" data-entity-2="ent0010" data-link-type="dependency" data-source-line="60" id="lnk34"><path d="M1373.8,167.6788 C1355.74,190.7087 1330.9533,222.328 1312.9733,245.248" fill="none" id="E660-to-LTE" style="stroke:#66BB6A;stroke-width:1;"/><polygon fill="#66BB6A" points="1309.27,249.9688,1317.9721,245.3565,1312.3561,246.0348,1311.6778,240.4187,1309.27,249.9688" style="stroke:#66BB6A;stroke-width:1;"/></g><!--link E350 to PLC--><g class="link" data-entity-1="ent0003" data-entity-2="ent0009" data-link-type="dependency" data-source-line="61" id="lnk35"><path d="M1082.89,167.5387 C1095.14,179.1587 1110.17,194.0287 1122.65,208.1887 C1134.37,221.4887 1142.9343,232.5312 1152.0443,245.0212" fill="none" id="E350-to-PLC" style="stroke:#66BB6A;stroke-width:1;"/><polygon fill="#66BB6A" points="1155.58,249.8687,1153.5081,240.2403,1152.6336,245.8291,1147.0447,244.9546,1155.58,249.8687" style="stroke:#66BB6A;stroke-width:1;"/></g><!--link RF to HES--><g class="link" data-entity-1="ent0008" data-entity-2="ent0011" data-link-type="dependency" data-source-line="63" id="lnk36"><path d="M1087.58,294.4487 C1098.08,302.1787 1110.24,310.8187 1121.65,318.1587 C1134.53,326.4487 1142.73,322.6887 1151.65,335.1587 C1154.9175,339.73 1157.6684,344.7052 1159.9805,349.9156 C1160.125,350.2413 1157.8935,345.0576 1158.0346,345.385" fill="none" id="RF-to-HES" style="stroke:#64B5F6;stroke-width:1;"/><polygon fill="#64B5F6" points="1160.4089,350.8953,1160.521,341.0471,1158.4303,346.3034,1153.174,344.2127,1160.4089,350.8953" style="stroke:#64B5F6;stroke-width:1;"/></g><!--link PLC to HES--><g class="link" data-entity-1="ent0009" data-entity-2="ent0011" data-link-type="dependency" data-source-line="64" id="lnk37"><path d="M1170.65,294.4788 C1170.65,305.3488 1170.65,319.4481 1170.65,334.5291 C1170.65,338.2993 1170.65,342.1309 1170.65,345.9887 C1170.65,346.9531 1170.65,347.9192 1170.65,348.8864 C1170.65,349.37 1170.65,349.8539 1170.65,350.3379 C1170.65,350.58 1170.65,344.8221 1170.65,345.0642" fill="none" id="PLC-to-HES" style="stroke:#64B5F6;stroke-width:1;"/><polygon fill="#64B5F6" points="1170.65,351.0642,1174.65,342.0642,1170.65,346.0642,1166.65,342.0642,1170.65,351.0642" style="stroke:#64B5F6;stroke-width:1;"/></g><!--link LTE to HES--><g class="link" data-entity-1="ent0010" data-entity-2="ent0011" data-link-type="dependency" data-source-line="65" id="lnk38"><path d="M1276.7,294.4788 C1260.42,316.2187 1234.475,350.8762 1212.3225,380.4687 C1201.2463,395.265 1191.1181,408.795 1183.6203,418.8109 C1182.6831,420.0629 1181.787,421.26 1180.9352,422.3978 C1180.5093,422.9667 1180.0946,423.5208 1179.6913,424.0595 C1179.4897,424.3288 1179.2909,424.5943 1179.0951,424.8559 C1178.9972,424.9867 1182.4957,420.3133 1182.3992,420.4421" fill="none" id="LTE-to-HES" style="stroke:#64B5F6;stroke-width:1;"/><polygon fill="#64B5F6" points="1178.8035,425.2454,1187.3992,420.4377,1181.8,421.2427,1180.995,415.6434,1178.8035,425.2454" style="stroke:#64B5F6;stroke-width:1;"/></g><!--link HES to MDM--><g class="link" data-entity-1="ent0011" data-entity-2="ent0014" data-link-type="dependency" data-source-line="67" id="lnk39"><path d="M1163.4387,483.3158 C1163.349,483.512 1163.2583,483.7076 1163.1665,483.9027 C1162.9829,484.2928 1162.7949,484.6806 1162.6025,485.0659 C1162.2177,485.8365 1161.8153,486.5971 1161.3943,487.3458 C1160.5524,488.8431 1159.6366,490.2926 1158.6405,491.679 C1156.6483,494.4519 1154.335,496.9725 1151.65,499.1188 C1149.4,500.9187 740.79,530.1987 738.65,532.1188 C734.47,535.8763 731.0309,540.2381 728.2138,544.9988 C727.8616,545.5938 727.5192,546.1951 727.1863,546.8023 C727.0198,547.1058 729.6566,542.1048 729.4949,542.4112" fill="none" id="HES-to-MDM" style="stroke:#FFA726;stroke-width:1;"/><polygon fill="#FFA726" points="726.6939,547.7173,734.4328,541.6255,729.0281,543.2956,727.358,537.8909,726.6939,547.7173" style="stroke:#FFA726;stroke-width:1;"/><text fill="#000000" font-family="Verdana" font-size="13" lengthAdjust="spacing" textLength="84.5127" x="1051.65" y="520.1856">raw readings</text></g><!--link MDM to GA--><g class="link" data-entity-1="ent0014" data-entity-2="ent0018" data-link-type="dependency" data-source-line="68" id="lnk40"><path d="M1018.258,715.495 C1018.6655,715.7175 1019.0726,715.9416 1019.4793,716.1675 C1022.7331,717.9742 1025.9606,719.8874 1029.1514,721.8855 C1035.533,725.8816 1041.7675,730.217 1047.7706,734.7177 C1059.7769,743.7191 1070.8575,753.3819 1080.3375,762.315 C1089.8175,771.2481 1097.6969,779.4516 1103.3006,785.5342 C1103.6509,785.9144 1103.9922,786.2863 1104.3245,786.6495 C1104.4076,786.7403 1100.4442,782.3999 1100.5261,782.4897" fill="none" id="MDM-to-GA" style="stroke:#7E57C2;stroke-width:1;"/><polygon fill="#7E57C2" points="1104.572,786.9203,1101.457,777.5771,1101.2004,783.2281,1095.5494,782.9716,1104.572,786.9203" style="stroke:#7E57C2;stroke-width:1;"/><text fill="#000000" font-family="Verdana" font-size="13" lengthAdjust="spacing" textLength="93.8628" x="990.65" y="699.1556">validated data</text></g><!--link HES to GA--><g class="link" data-entity-1="ent0011" data-entity-2="ent0018" data-link-type="dependency" data-source-line="69" id="lnk41"><path d="M1178.8732,453.2686 C1179.0883,453.6853 1179.3066,454.1096 1179.5279,454.5415 C1179.9705,455.4052 1180.4252,456.2991 1180.8911,457.2222 C1182.7544,460.9146 1184.7953,465.0744 1186.9469,469.64 C1195.5531,487.9025 1205.93,512.6588 1213.7975,539.9738 C1229.5325,594.6038 1235.23,659.4688 1196.65,703.0887 C1177.36,724.8988 1153.21,691.5387 1131.65,711.0887 C1128.1775,714.2375 1125.2673,717.8698 1122.8343,721.8225 C1122.226,722.8107 1121.6475,723.8188 1121.0976,724.8445 C1120.8226,725.3573 1120.5547,725.8745 1120.2938,726.3958 C1120.2286,726.5261 1122.8126,721.273 1122.7482,721.4038" fill="none" id="HES-to-GA" style="stroke:#7E57C2;stroke-width:1;"/><polygon fill="#7E57C2" points="1120.0994,726.7874,1127.6618,720.4778,1122.3068,722.3011,1120.4835,716.9461,1120.0994,726.7874" style="stroke:#7E57C2;stroke-width:1;"/><text fill="#000000" font-family="Verdana" font-size="13" lengthAdjust="spacing" textLength="57.3574" x="1226.65" y="638.6756">raw data</text></g><!--link HES to API--><g class="link" data-entity-1="ent0011" data-entity-2="ent0022" data-link-type="dependency" data-source-line="71" id="lnk42"><path d="M1159.7343,483.9373 C1159.6118,484.4309 1159.4883,484.9277 1159.3639,485.4278 C1158.3688,489.428 1157.3136,493.6323 1156.2009,498.0209 C1147.2994,533.13 1134.7138,580.035 1119.6675,628.6087 C1089.575,725.7562 1049.64,829.5787 1009.65,859.0587 C989.23,874.1087 572.55,878.8687 554.65,896.8387 C539.01,912.5387 536.3117,931.271 538.1279,952.3185" fill="none" id="HES-to-API" style="stroke:#C62828;stroke-width:1;"/><polygon fill="#C62828" points="538.6438,958.2963,541.8552,948.9857,538.2139,953.3148,533.8848,949.6735,538.6438,958.2963" style="stroke:#C62828;stroke-width:1;"/></g><!--link MDM to API--><g class="link" data-entity-1="ent0014" data-entity-2="ent0022" data-link-type="dependency" data-source-line="72" id="lnk43"><path d="M711.2506,635.6027 C709.5864,635.7076 707.6925,635.8302 705.5847,635.9712 C697.1536,636.5354 685.3019,637.3955 671.0556,638.6092 C642.5631,641.0366 604.4925,644.8781 565.0525,650.595 C486.1725,662.0288 401.815,680.9637 377.65,711.0887 C336.49,762.3888 349.54,799.6087 377.65,859.0587 C398.095,902.3037 439.3525,936.5962 475.9825,960.2725 C494.2975,972.1106 511.4556,981.2947 524.2769,987.6167 C527.4822,989.1972 530.4164,990.5989 533.03,991.8184 C534.3367,992.4281 535.5633,992.9923 536.7035,993.5106 C537.2736,993.7698 532.3481,991.5607 532.8742,991.7968" fill="none" id="MDM-to-API" style="stroke:#C62828;stroke-width:1;"/><polygon fill="#C62828" points="538.3482,994.2535,531.775,986.9191,533.7865,992.2063,528.4994,994.2177,538.3482,994.2535" style="stroke:#C62828;stroke-width:1;"/></g><!--link GA to API--><g class="link" data-entity-1="ent0018" data-entity-2="ent0022" data-link-type="dependency" data-source-line="73" id="lnk44"><path d="M1104.5724,823.5485 C1104.5351,823.6457 1104.4976,823.743 1104.4601,823.8404 C1104.385,824.0353 1104.3093,824.2306 1104.2332,824.4265 C1104.0809,824.8182 1103.9265,825.2119 1103.77,825.6073 C1103.144,827.1891 1102.4845,828.7993 1101.7913,830.4264 C1100.4049,833.6807 1098.8839,837.0027 1097.2272,840.3003 C1093.9138,846.8956 1090.0575,853.3938 1085.65,859.0587 C1072.47,875.9888 1067.87,881.6787 1047.65,888.8387 C1034.74,893.4187 564.63,887.4688 554.65,896.8387 C538.495,912.0088 536.3025,936.7088 538.2425,957.8838 C538.3031,958.5455 538.3678,959.2037 538.4362,959.8582 C538.4704,960.1854 538.5055,960.5117 538.5415,960.8369 C538.5596,960.9995 537.899,955.2004 537.9175,955.3625" fill="none" id="GA-to-API" style="stroke:#C62828;stroke-width:1;"/><polygon fill="#C62828" points="538.5963,961.324,541.5524,951.9293,538.0306,956.3561,533.6038,952.8343,538.5963,961.324" style="stroke:#C62828;stroke-width:1;"/></g><!--link Billing to API--><g class="link" data-entity-1="ent0027" data-entity-2="ent0022" data-link-type="dependency" data-source-line="75" id="lnk45"><path d="M489.36,858.2788 C501.245,887.2288 515.3075,921.4862 526.525,948.8137 C529.3294,955.6456 531.9559,962.0444 534.3262,967.8188 C535.5113,970.706 536.6324,973.4371 537.6796,975.9883 C537.9414,976.626 538.1986,977.2526 538.451,977.8675 C538.5141,978.0212 536.2985,972.6236 536.361,972.7759" fill="none" id="Billing-to-API" style="stroke:#E65100;stroke-width:2;"/><polygon fill="#E65100" points="538.6394,978.3265,538.9222,968.4817,536.7407,973.701,531.5214,971.5195,538.6394,978.3265" style="stroke:#E65100;stroke-width:2;"/></g><!--link Grid to API--><g class="link" data-entity-1="ent0028" data-entity-2="ent0022" data-link-type="dependency" data-source-line="76" id="lnk46"><path d="M575.49,858.1288 C567.2,870.2488 559.72,883.4087 554.65,896.8387 C553.6712,899.43 552.7826,902.0846 551.9767,904.7851 C551.5738,906.1353 551.1915,907.497 550.829,908.8679 C550.6477,909.5533 550.4714,910.2411 550.2999,910.9309 C550.2142,911.2758 550.1297,911.6212 550.0463,911.9671 C550.0046,912.14 551.3481,906.4751 551.307,906.6483" fill="none" id="Grid-to-API" style="stroke:#E65100;stroke-width:2;"/><polygon fill="#E65100" points="549.9222,912.4863,555.8914,904.6525,551.0762,907.6213,548.1074,902.8061,549.9222,912.4863" style="stroke:#E65100;stroke-width:2;"/></g><!--link Portal to API--><g class="link" data-entity-1="ent0029" data-entity-2="ent0022" data-link-type="dependency" data-source-line="77" id="lnk47"><path d="M130.64,848.0288 C136.56,852.0088 142.61,855.7688 148.65,859.0587 C230.225,903.5737 328.8125,938.0737 407.4562,961.54 C446.7781,973.2731 481.1141,982.2478 505.8445,988.3367 C518.2098,991.3812 528.1736,993.7042 535.1587,995.2898 C536.0318,995.488 536.8584,995.6747 537.6373,995.8498 C537.8321,995.8936 532.1693,994.6235 532.358,994.6658" fill="none" id="Portal-to-API" style="stroke:#E65100;stroke-width:2;"/><polygon fill="#E65100" points="538.2126,995.979,530.3062,990.1062,533.3338,994.8847,528.5553,997.9122,538.2126,995.979" style="stroke:#E65100;stroke-width:2;"/></g><!--link DERMS to API--><g class="link" data-entity-1="ent0030" data-entity-2="ent0022" data-link-type="dependency" data-source-line="78" id="lnk48"><path d="M272.81,850.4287 C286.07,863.9788 301.19,877.8287 316.65,888.8387 C361.995,921.1387 418.42,948.0462 464.0338,967.045 C486.8406,976.5444 506.9447,984.0666 521.6095,989.297 C525.2757,990.6046 528.602,991.769 531.5456,992.7853 C533.0173,993.2934 534.3934,993.7645 535.6685,994.1979 C536.306,994.4146 536.9183,994.6219 537.5047,994.8197 C537.7979,994.9186 532.3972,993.1037 532.6773,993.1978" fill="none" id="DERMS-to-API" style="stroke:#E65100;stroke-width:2;"/><polygon fill="#E65100" points="538.3647,995.1093,531.108,988.4505,533.6252,993.5164,528.5593,996.0337,538.3647,995.1093" style="stroke:#E65100;stroke-width:2;"/></g><?plantuml-src bLLjZzf64FxkNx4zf2fHIW43Xf0hbL_M5wJG87n9FuIesiFRkzMjTv6zvaAh_FVExjgE2HnjGG9xvfcPdMTUzWVrG3EATfmmuJYAAKxHzTqyKNI79ZEq48hUvqGnSO-Uc7f07nJZJ1rGSYWKpOhhtjry8wxP_FS7cbEqbQ8eCmqcknrdMp04YHOBkbNNFJPtdEAHYHt9IORkoFRnFfUbI4F9POuwCTRV5YAbVvAIgrWAbR2_A1eCs_P2fXJzxI3uV4ECdAyjo5PcEoceK2Su5t2EyN2LP2HNQ4aLpOihH8hg4NNmD1xZrsyu4tJcUK7W-MyK_Q9cBfv4GxTo-GaFntsqfWLB8GuZ_BDsOOITS8gzyCX1RUBraP_kYTZIjC9x5_39w4iFU-0n_75Xu22uuDtp-hqrtLCkqKBUMl_UC_w1XIsNPOgkGfbbfQYAXdwZwadcZuOFhG4sXh4RHvNnA1Z7dcLZCFR6ORzcOnq3VSM32GhFdI28S1oqhInkzIuq6FX_7XHIpajESlJk5Xiq_9z5DxMyoLbQg9n2xT_YP2DUlAKaxMAHLXtxqYG4AkYsE1xYldKJn_x4hV81eWVz9f-8A084S0uD3BoOKqIXjiRzm6rRMxpf7PYRFJI3p0y6lroSnJU73YNCpZ9QwlDQUnDrUPyfUrxG7NVZQEZtHvEA_s2CtUQy7mbdAMcE2g_7PRUMLQCKYcNViF1w0PiolGKi49xF8i-LmHU47nJRsj6wyI6H24-WUOpX18ydeMiJ6Vc3qJHiYASPWR8Pyu8LbdYmZWRXgAR1MbU9Iwx8FV0e1GFcwxD-N3vlecT4b1IjSgbQvLslpfeqoQrnSelyrGAg5PD2mHDwXTxlgD1Fmvy7jcRwHLSzmDYw2Jrtwavjgi5a40wQL7kPMJYMswMs2gEewXKy7huUZYiS49f2OXLoVG5P5i15ToUPK1NwmmKqgMjaeVvPAEHFji0ike8B8c2SwprlfyfU0o_2HV9o8sxmBMfEkX6_xcr7qlGFAVZX5vMNr11KkpWQH3jy5KanBCMm5LHtbIOwj_TA5VNzCkdvC3nrw2QPZUZjRLDquLQ29N-mBQYz_FUWOLaecS5ChcIk2BT1JQ0snz-bRG9PW_yHAiBhPT8AqCuaDUDmb8Y1_wjxnrn5tKyTk_0_T-Umbnrptnm9ORKw-bev4PghurHwuXKskUF0ojT2ivMr43QjerVyYL1lyXEXenSpIEs2r5Az-MOe9q-efjRH8i3OgTGOs2apr7GPWbzIE_eEfFqOTQstCwdrCAwrvsCX69x8dBftGMCf_-bEyhGnqHrsNbNrn7cbBUXPtJy0?></g></svg>