<?plantuml 1.2026.2beta3?><svg xmlns="http://www.w3.org/2000/svg" xmlns:xlink="http://www.w3.org/1999/xlink" contentStyleType="text/css" data-diagram-type="DESCRIPTION" height="831px" preserveAspectRatio="none" style="width:1856px;height:831px;background:#FEFEFE;" version="1.1" viewBox="0 0 1856 831" width="1856px" zoomAndPan="magnify"><title>&lt;b&gt;Software Architecture: API Layer&lt;/b&gt;
&lt;i&gt;FastAPI routers &#183; Auth &#183; OpenAPI 3.1&lt;/i&gt;</title><defs/><g><rect fill="#FEFEFE" height="831" style="stroke:none;stroke-width:1;" width="1856" x="0" y="0"/><g class="title" data-source-line="3"><text fill="#000000" font-family="Verdana" font-size="22" font-weight="bold" lengthAdjust="spacing" textLength="408.6221" x="719.189" y="35.4209">Software Architecture: API Layer</text><text fill="#000000" font-family="Verdana" font-size="22" font-style="italic" font-weight="bold" lengthAdjust="spacing" textLength="452.708" x="697.146" y="61.0303">FastAPI routers &#183; Auth &#183; OpenAPI 3.1</text></g><!--cluster API Layer--><g class="cluster" data-qualified-name="API Layer" data-source-line="11" id="ent0002"><path d="M13.5,83.2188 L89.5723,83.2188 A3.75,3.75 0 0 1 92.0723,85.7188 L99.0723,105.5156 L1458.5,105.5156 A2.5,2.5 0 0 1 1461,108.0156 L1461,395.5188 A2.5,2.5 0 0 1 1458.5,398.0188 L13.5,398.0188 A2.5,2.5 0 0 1 11,395.5188 L11,85.7188 A2.5,2.5 0 0 1 13.5,83.2188" fill="#FFEBEE" style="stroke:#C62828;stroke-width:1;"/><line style="stroke:#C62828;stroke-width:1;" x1="11" x2="99.0723" y1="105.5156" y2="105.5156"/><text fill="#000000" font-family="Verdana" font-size="14" font-weight="bold" lengthAdjust="spacing" textLength="75.0723" x="15" y="98.2139">API Layer</text></g><!--cluster Simulator Layer--><g class="cluster" data-qualified-name="Simulator Layer" data-source-line="23" id="ent0011"><path d="M1487.5,286.7488 L1614.165,286.7488 A3.75,3.75 0 0 1 1616.665,289.2488 L1623.665,309.0456 L1846.5,309.0456 A2.5,2.5 0 0 1 1849,311.5456 L1849,822.0488 A2.5,2.5 0 0 1 1846.5,824.5488 L1487.5,824.5488 A2.5,2.5 0 0 1 1485,822.0488 L1485,289.2488 A2.5,2.5 0 0 1 1487.5,286.7488" fill="#E3F2FD" style="stroke:#64B5F6;stroke-width:1;"/><line style="stroke:#64B5F6;stroke-width:1;" x1="1485" x2="1623.665" y1="309.0456" y2="309.0456"/><text fill="#000000" font-family="Verdana" font-size="14" font-weight="bold" lengthAdjust="spacing" textLength="125.665" x="1489" y="301.7439">Simulator Layer</text></g><!--entity API--><g class="entity" data-qualified-name="API Layer.API" data-source-line="12" id="ent0003"><rect fill="#FFCDD2" height="75.3984" rx="2.5" ry="2.5" style="stroke:#E53935;stroke-width:1;" width="188.3003" x="26.85" y="125.7888"/><rect fill="#FFCDD2" height="10" style="stroke:#E53935;stroke-width:1;" width="15" x="195.1503" y="130.7888"/><rect fill="#FFCDD2" height="2" style="stroke:#E53935;stroke-width:1;" width="4" x="193.1503" y="132.7888"/><rect fill="#FFCDD2" height="2" style="stroke:#E53935;stroke-width:1;" width="4" x="193.1503" y="136.7888"/><text fill="#000000" font-family="Verdana" font-size="13" font-weight="bold" lengthAdjust="spacing" textLength="143.4761" x="41.85" y="157.8556">FastAPI Application</text><text fill="#000000" font-family="Verdana" font-size="13" lengthAdjust="spacing" textLength="148.3003" x="41.85" y="172.9885">OpenAPI 3.1 auto-docs</text><text fill="#000000" font-family="Verdana" font-size="13" lengthAdjust="spacing" textLength="105.5615" x="41.85" y="188.1213">Lifespan startup</text></g><!--entity Auth--><g class="entity" data-qualified-name="API Layer.Auth" data-source-line="13" id="ent0004"><rect fill="#FFCDD2" height="75.3984" rx="2.5" ry="2.5" style="stroke:#E53935;stroke-width:1;" width="175.9922" x="33" y="306.6188"/><rect fill="#FFCDD2" height="10" style="stroke:#E53935;stroke-width:1;" width="15" x="188.9922" y="311.6188"/><rect fill="#FFCDD2" height="2" style="stroke:#E53935;stroke-width:1;" width="4" x="186.9922" y="313.6188"/><rect fill="#FFCDD2" height="2" style="stroke:#E53935;stroke-width:1;" width="4" x="186.9922" y="317.6188"/><text fill="#000000" font-family="Verdana" font-size="13" font-weight="bold" lengthAdjust="spacing" textLength="124.5981" x="48" y="338.6856">Auth Middleware</text><text fill="#000000" font-family="Verdana" font-size="13" lengthAdjust="spacing" textLength="113.001" x="48" y="353.8185">X-API-Key header</text><text fill="#000000" font-family="Verdana" font-size="13" lengthAdjust="spacing" textLength="135.9922" x="48" y="368.9513">401 if missing/wrong</text></g><!--entity Health--><g class="entity" data-qualified-name="API Layer.Health" data-source-line="15" id="ent0005"><rect fill="#FFCDD2" height="75.3984" rx="2.5" ry="2.5" style="stroke:#E53935;stroke-width:1;" width="171.2949" x="250.35" y="125.7888"/><rect fill="#FFCDD2" height="10" style="stroke:#E53935;stroke-width:1;" width="15" x="401.6449" y="130.7888"/><rect fill="#FFCDD2" height="2" style="stroke:#E53935;stroke-width:1;" width="4" x="399.6449" y="132.7888"/><rect fill="#FFCDD2" height="2" style="stroke:#E53935;stroke-width:1;" width="4" x="399.6449" y="136.7888"/><text fill="#000000" font-family="Verdana" font-size="13" font-weight="bold" lengthAdjust="spacing" textLength="51.5176" x="265.35" y="157.8556">/health</text><text fill="#000000" font-family="Verdana" font-size="13" lengthAdjust="spacing" textLength="110.5254" x="265.35" y="172.9885">No auth required</text><text fill="#000000" font-family="Verdana" font-size="13" lengthAdjust="spacing" textLength="131.2949" x="265.35" y="188.1213">Monitoring endpoint</text></g><!--entity MR--><g class="entity" data-qualified-name="API Layer.MR" data-source-line="16" id="ent0006"><rect fill="#FFCDD2" height="75.3984" rx="2.5" ry="2.5" style="stroke:#E53935;stroke-width:1;" width="168.7876" x="456.61" y="125.7888"/><rect fill="#FFCDD2" height="10" style="stroke:#E53935;stroke-width:1;" width="15" x="605.3976" y="130.7888"/><rect fill="#FFCDD2" height="2" style="stroke:#E53935;stroke-width:1;" width="4" x="603.3976" y="132.7888"/><rect fill="#FFCDD2" height="2" style="stroke:#E53935;stroke-width:1;" width="4" x="603.3976" y="136.7888"/><text fill="#000000" font-family="Verdana" font-size="13" font-weight="bold" lengthAdjust="spacing" textLength="56.291" x="471.61" y="157.8556">/meters</text><text fill="#000000" font-family="Verdana" font-size="13" lengthAdjust="spacing" textLength="103.8286" x="471.61" y="172.9885">List &#183; Filter &#183; Get</text><text fill="#000000" font-family="Verdana" font-size="13" lengthAdjust="spacing" textLength="128.7876" x="471.61" y="188.1213">Type, status, comm</text></g><!--entity RR--><g class="entity" data-qualified-name="API Layer.RR" data-source-line="17" id="ent0007"><rect fill="#FFCDD2" height="75.3984" rx="2.5" ry="2.5" style="stroke:#E53935;stroke-width:1;" width="176.4937" x="660.75" y="125.7888"/><rect fill="#FFCDD2" height="10" style="stroke:#E53935;stroke-width:1;" width="15" x="817.2437" y="130.7888"/><rect fill="#FFCDD2" height="2" style="stroke:#E53935;stroke-width:1;" width="4" x="815.2437" y="132.7888"/><rect fill="#FFCDD2" height="2" style="stroke:#E53935;stroke-width:1;" width="4" x="815.2437" y="136.7888"/><text fill="#000000" font-family="Verdana" font-size="13" font-weight="bold" lengthAdjust="spacing" textLength="68.8086" x="675.75" y="157.8556">/readings</text><text fill="#000000" font-family="Verdana" font-size="13" lengthAdjust="spacing" textLength="136.4937" x="675.75" y="172.9885">Raw &amp; VEE-validated</text><text fill="#000000" font-family="Verdana" font-size="13" lengthAdjust="spacing" textLength="99.8994" x="675.75" y="188.1213">/interval-blocks</text></g><!--entity UP--><g class="entity" data-qualified-name="API Layer.UP" data-source-line="18" id="ent0008"><rect fill="#FFCDD2" height="75.3984" rx="2.5" ry="2.5" style="stroke:#E53935;stroke-width:1;" width="164.5156" x="872.74" y="125.7888"/><rect fill="#FFCDD2" height="10" style="stroke:#E53935;stroke-width:1;" width="15" x="1017.2556" y="130.7888"/><rect fill="#FFCDD2" height="2" style="stroke:#E53935;stroke-width:1;" width="4" x="1015.2556" y="132.7888"/><rect fill="#FFCDD2" height="2" style="stroke:#E53935;stroke-width:1;" width="4" x="1015.2556" y="136.7888"/><text fill="#000000" font-family="Verdana" font-size="13" font-weight="bold" lengthAdjust="spacing" textLength="99.9312" x="887.74" y="157.8556">/usage-points</text><text fill="#000000" font-family="Verdana" font-size="13" lengthAdjust="spacing" textLength="110.5317" x="887.74" y="172.9885">Service locations</text><text fill="#000000" font-family="Verdana" font-size="13" lengthAdjust="spacing" textLength="124.5156" x="887.74" y="188.1213">Customer mapping</text></g><!--entity RT--><g class="entity" data-qualified-name="API Layer.RT" data-source-line="19" id="ent0009"><rect fill="#FFCDD2" height="75.3984" rx="2.5" ry="2.5" style="stroke:#E53935;stroke-width:1;" width="177.3633" x="1072.32" y="125.7888"/><rect fill="#FFCDD2" height="10" style="stroke:#E53935;stroke-width:1;" width="15" x="1229.6833" y="130.7888"/><rect fill="#FFCDD2" height="2" style="stroke:#E53935;stroke-width:1;" width="4" x="1227.6833" y="132.7888"/><rect fill="#FFCDD2" height="2" style="stroke:#E53935;stroke-width:1;" width="4" x="1227.6833" y="136.7888"/><text fill="#000000" font-family="Verdana" font-size="13" font-weight="bold" lengthAdjust="spacing" textLength="107.0151" x="1087.32" y="157.8556">/reading-types</text><text fill="#000000" font-family="Verdana" font-size="13" lengthAdjust="spacing" textLength="106.1963" x="1087.32" y="172.9885">CIM 18-attribute</text><text fill="#000000" font-family="Verdana" font-size="13" lengthAdjust="spacing" textLength="137.3633" x="1087.32" y="188.1213">ReadingType catalog</text></g><!--entity AR--><g class="entity" data-qualified-name="API Layer.AR" data-source-line="20" id="ent0010"><rect fill="#FFCDD2" height="90.5313" rx="2.5" ry="2.5" style="stroke:#E53935;stroke-width:1;" width="160.6055" x="1284.7" y="118.2188"/><rect fill="#FFCDD2" height="10" style="stroke:#E53935;stroke-width:1;" width="15" x="1425.3055" y="123.2188"/><rect fill="#FFCDD2" height="2" style="stroke:#E53935;stroke-width:1;" width="4" x="1423.3055" y="125.2188"/><rect fill="#FFCDD2" height="2" style="stroke:#E53935;stroke-width:1;" width="4" x="1423.3055" y="129.2188"/><text fill="#000000" font-family="Verdana" font-size="13" font-weight="bold" lengthAdjust="spacing" textLength="70.5923" x="1299.7" y="150.2856">/analytics</text><text fill="#000000" font-family="Verdana" font-size="13" lengthAdjust="spacing" textLength="120.6055" x="1299.7" y="165.4185">Demand summary</text><text fill="#000000" font-family="Verdana" font-size="13" lengthAdjust="spacing" textLength="115.248" x="1299.7" y="180.5513">Voltage summary</text><text fill="#000000" font-family="Verdana" font-size="13" lengthAdjust="spacing" textLength="98.1221" x="1299.7" y="195.6841">Revenue alerts</text></g><!--entity Engine--><g class="entity" data-qualified-name="Simulator Layer.Engine" data-source-line="24" id="ent0012"><rect fill="#BBDEFB" height="45.1328" rx="2.5" ry="2.5" style="stroke:#64B5F6;stroke-width:1;" width="147.2944" x="1501.35" y="321.7488"/><rect fill="#BBDEFB" height="10" style="stroke:#64B5F6;stroke-width:1;" width="15" x="1628.6444" y="326.7488"/><rect fill="#BBDEFB" height="2" style="stroke:#64B5F6;stroke-width:1;" width="4" x="1626.6444" y="328.7488"/><rect fill="#BBDEFB" height="2" style="stroke:#64B5F6;stroke-width:1;" width="4" x="1626.6444" y="332.7488"/><text fill="#000000" font-family="Verdana" font-size="13" lengthAdjust="spacing" textLength="107.2944" x="1516.35" y="353.8156">SimulatorEngine</text></g><!--entity HES--><g class="entity" data-qualified-name="Simulator Layer.HES" data-source-line="25" id="ent0013"><rect fill="#BBDEFB" height="45.1328" rx="2.5" ry="2.5" style="stroke:#64B5F6;stroke-width:1;" width="138.998" x="1524.5" y="551.1488"/><rect fill="#BBDEFB" height="10" style="stroke:#64B5F6;stroke-width:1;" width="15" x="1643.498" y="556.1488"/><rect fill="#BBDEFB" height="2" style="stroke:#64B5F6;stroke-width:1;" width="4" x="1641.498" y="558.1488"/><rect fill="#BBDEFB" height="2" style="stroke:#64B5F6;stroke-width:1;" width="4" x="1641.498" y="562.1488"/><text fill="#000000" font-family="Verdana" font-size="13" lengthAdjust="spacing" textLength="98.998" x="1539.5" y="583.2156">Headend (HES)</text></g><!--entity MDM--><g class="entity" data-qualified-name="Simulator Layer.MDM" data-source-line="26" id="ent0014"><rect fill="#BBDEFB" height="45.1328" rx="2.5" ry="2.5" style="stroke:#64B5F6;stroke-width:1;" width="112.0396" x="1537.98" y="445.0188"/><rect fill="#BBDEFB" height="10" style="stroke:#64B5F6;stroke-width:1;" width="15" x="1630.0196" y="450.0188"/><rect fill="#BBDEFB" height="2" style="stroke:#64B5F6;stroke-width:1;" width="4" x="1628.0196" y="452.0188"/><rect fill="#BBDEFB" height="2" style="stroke:#64B5F6;stroke-width:1;" width="4" x="1628.0196" y="456.0188"/><text fill="#000000" font-family="Verdana" font-size="13" lengthAdjust="spacing" textLength="72.0396" x="1552.98" y="477.0856">MDM (VEE)</text></g><!--entity AE--><g class="entity" data-qualified-name="Simulator Layer.AE" data-source-line="27" id="ent0015"><rect fill="#BBDEFB" height="45.1328" rx="2.5" ry="2.5" style="stroke:#64B5F6;stroke-width:1;" width="147.7197" x="1685.14" y="445.0188"/><rect fill="#BBDEFB" height="10" style="stroke:#64B5F6;stroke-width:1;" width="15" x="1812.8597" y="450.0188"/><rect fill="#BBDEFB" height="2" style="stroke:#64B5F6;stroke-width:1;" width="4" x="1810.8597" y="452.0188"/><rect fill="#BBDEFB" height="2" style="stroke:#64B5F6;stroke-width:1;" width="4" x="1810.8597" y="456.0188"/><text fill="#000000" font-family="Verdana" font-size="13" lengthAdjust="spacing" textLength="107.7197" x="1700.14" y="477.0856">Analytics Engine</text></g><!--entity MP--><g class="entity" data-qualified-name="Simulator Layer.MP" data-source-line="28" id="ent0016"><rect fill="#BBDEFB" height="45.1328" rx="2.5" ry="2.5" style="stroke:#64B5F6;stroke-width:1;" width="110.4653" x="1519.77" y="657.2788"/><rect fill="#BBDEFB" height="10" style="stroke:#64B5F6;stroke-width:1;" width="15" x="1610.2353" y="662.2788"/><rect fill="#BBDEFB" height="2" style="stroke:#64B5F6;stroke-width:1;" width="4" x="1608.2353" y="664.2788"/><rect fill="#BBDEFB" height="2" style="stroke:#64B5F6;stroke-width:1;" width="4" x="1608.2353" y="668.2788"/><text fill="#000000" font-family="Verdana" font-size="13" lengthAdjust="spacing" textLength="70.4653" x="1534.77" y="689.3456">Meter Park</text></g><!--entity DG--><g class="entity" data-qualified-name="Simulator Layer.DG" data-source-line="29" id="ent0017"><rect fill="#BBDEFB" height="45.1328" rx="2.5" ry="2.5" style="stroke:#64B5F6;stroke-width:1;" width="141.188" x="1550.41" y="763.4188"/><rect fill="#BBDEFB" height="10" style="stroke:#64B5F6;stroke-width:1;" width="15" x="1671.598" y="768.4188"/><rect fill="#BBDEFB" height="2" style="stroke:#64B5F6;stroke-width:1;" width="4" x="1669.598" y="770.4188"/><rect fill="#BBDEFB" height="2" style="stroke:#64B5F6;stroke-width:1;" width="4" x="1669.598" y="774.4188"/><text fill="#000000" font-family="Verdana" font-size="13" lengthAdjust="spacing" textLength="101.188" x="1565.41" y="795.4856">Data Generator</text></g><!--link API to Auth--><g class="link" data-entity-1="ent0003" data-entity-2="ent0004" data-link-type="dependency" data-source-line="32" id="lnk18"><path d="M121,201.5388 C121,232.2288 121,269.6288 121,300.3088" fill="none" id="API-to-Auth" style="stroke:#C62828;stroke-width:2;"/><polygon fill="#C62828" points="121,306.3088,125,297.3088,121,301.3088,117,297.3088,121,306.3088" style="stroke:#C62828;stroke-width:2;"/><text fill="#000000" font-family="Verdana" font-size="13" lengthAdjust="spacing" textLength="78.292" x="134.8508" y="251.8156">validates all</text><text fill="#000000" font-family="Verdana" font-size="13" lengthAdjust="spacing" textLength="103.9937" x="122" y="266.9485">(except /health)</text></g><!--link API to Engine--><g class="link" data-entity-1="ent0003" data-entity-2="ent0012" data-link-type="dependency" data-source-line="33" id="lnk19"><path d="M212.02,201.6088 C219.08,204.1388 226.13,206.5488 233,208.7488 C341.6,243.5688 368.86,256.4088 482,270.7488 C535.96,277.5888 1408.46,264.6788 1461,278.7488 C1492.2,287.1088 1518.925,302.6462 1540.935,317.8662" fill="none" id="API-to-Engine" style="stroke:#C62828;stroke-width:2;"/><polygon fill="#C62828" points="1545.87,321.2788,1540.7425,312.8699,1541.7575,318.4349,1536.1924,319.4499,1545.87,321.2788" style="stroke:#C62828;stroke-width:2;"/><text fill="#000000" font-family="Verdana" font-size="13" lengthAdjust="spacing" textLength="48.2168" x="483" y="259.3156">queries</text></g><!--link Health to Engine--><g class="link" data-entity-1="ent0005" data-entity-2="ent0012" data-link-type="dependency" data-source-line="35" id="lnk20"><path d="M418.37,201.6088 C425.29,204.1988 432.22,206.6188 439,208.7488 C568.87,249.6188 603.63,256.1488 739,270.7488 C778.88,275.0488 1422.27,268.3188 1461,278.7488 C1492.19,287.1588 1518.9132,302.6887 1540.9332,317.8987" fill="none" id="Health-to-Engine" style="stroke:#C62828;stroke-width:1;"/><polygon fill="#C62828" points="1545.87,321.3088,1540.7382,312.9025,1541.756,318.4671,1536.1915,319.4849,1545.87,321.3088" style="stroke:#C62828;stroke-width:1;"/></g><!--link MR to Engine--><g class="link" data-entity-1="ent0006" data-entity-2="ent0012" data-link-type="dependency" data-source-line="36" id="lnk21"><path d="M622.54,201.6588 C629.4,204.2388 636.28,206.6488 643,208.7488 C776.66,250.6488 812.73,255.8088 952,270.7488 C1008.24,276.7888 1406.42,263.9088 1461,278.7488 C1492.17,287.2288 1518.8894,302.7643 1540.9194,317.9443" fill="none" id="MR-to-Engine" style="stroke:#C62828;stroke-width:1;"/><polygon fill="#C62828" points="1545.86,321.3488,1540.7186,312.9484,1541.7428,318.5117,1536.1794,319.5359,1545.86,321.3488" style="stroke:#C62828;stroke-width:1;"/></g><!--link RR to Engine--><g class="link" data-entity-1="ent0007" data-entity-2="ent0012" data-link-type="dependency" data-source-line="37" id="lnk22"><path d="M834.11,201.6488 C841.12,204.2088 848.14,206.6188 855,208.7488 C982.94,248.5188 1016.93,255.1888 1150,270.7488 C1184.33,274.7688 1427.69,269.5188 1461,278.7488 C1492.12,287.3788 1518.8552,302.9104 1540.8852,318.0504" fill="none" id="RR-to-Engine" style="stroke:#C62828;stroke-width:1;"/><polygon fill="#C62828" points="1545.83,321.4488,1540.6783,313.0547,1541.7093,318.6168,1536.1472,319.6478,1545.83,321.4488" style="stroke:#C62828;stroke-width:1;"/></g><!--link UP to Engine--><g class="link" data-entity-1="ent0008" data-entity-2="ent0012" data-link-type="dependency" data-source-line="38" id="lnk23"><path d="M1034.94,201.5988 C1041.66,204.1888 1048.41,206.6188 1055,208.7488 C1180.8,249.5088 1215.05,252.3388 1346,270.7488 C1396.74,277.8888 1411.94,263.9888 1461,278.7488 C1491.71,287.9988 1518.1944,303.2956 1540.2744,318.1756" fill="none" id="UP-to-Engine" style="stroke:#C62828;stroke-width:1;"/><polygon fill="#C62828" points="1545.25,321.5288,1540.022,313.182,1541.1037,318.7345,1535.5512,319.8161,1545.25,321.5288" style="stroke:#C62828;stroke-width:1;"/></g><!--link RT to Engine--><g class="link" data-entity-1="ent0009" data-entity-2="ent0012" data-link-type="dependency" data-source-line="39" id="lnk24"><path d="M1249.07,201.6488 C1255.13,204.0888 1261.15,206.4788 1267,208.7488 C1352.43,241.9788 1377.71,240.4688 1461,278.7488 C1488.28,291.2888 1512.5973,304.978 1534.7273,318.278" fill="none" id="RT-to-Engine" style="stroke:#C62828;stroke-width:1;"/><polygon fill="#C62828" points="1539.87,321.3688,1534.2164,313.3042,1535.5844,318.7931,1530.0955,320.1611,1539.87,321.3688" style="stroke:#C62828;stroke-width:1;"/></g><!--link AR to Engine--><g class="link" data-entity-1="ent0010" data-entity-2="ent0012" data-link-type="dependency" data-source-line="40" id="lnk25"><path d="M1417.45,209.1488 C1459.48,244.9488 1512.0916,289.749 1544.7416,317.549" fill="none" id="AR-to-Engine" style="stroke:#C62828;stroke-width:1;"/><polygon fill="#C62828" points="1549.31,321.4388,1545.0506,312.5586,1545.503,318.1973,1539.8643,318.6497,1549.31,321.4388" style="stroke:#C62828;stroke-width:1;"/></g><!--link Engine to HES--><g class="link" data-entity-1="ent0012" data-entity-2="ent0013" data-link-type="dependency" data-source-line="42" id="lnk26"><path d="M1556.54,366.9288 C1534.7,395.2388 1503.28,446.4388 1520,490.1488 C1529.22,514.2388 1544.5833,531.7438 1561.4033,546.7538" fill="none" id="Engine-to-HES" style="stroke:#64B5F6;stroke-width:1;"/><polygon fill="#64B5F6" points="1565.88,550.7488,1561.8283,541.7719,1562.1494,547.4196,1556.5017,547.7408,1565.88,550.7488" style="stroke:#64B5F6;stroke-width:1;"/></g><!--link Engine to MDM--><g class="link" data-entity-1="ent0012" data-entity-2="ent0014" data-link-type="dependency" data-source-line="43" id="lnk27"><path d="M1578.44,367.2788 C1581.88,389.2588 1586.2224,416.9409 1589.6524,438.8609" fill="none" id="Engine-to-MDM" style="stroke:#64B5F6;stroke-width:1;"/><polygon fill="#64B5F6" points="1590.58,444.7888,1593.1405,435.2786,1589.807,439.8489,1585.2367,436.5153,1590.58,444.7888" style="stroke:#64B5F6;stroke-width:1;"/></g><!--link Engine to AE--><g class="link" data-entity-1="ent0012" data-entity-2="ent0015" data-link-type="dependency" data-source-line="44" id="lnk28"><path d="M1608.32,367.2788 C1641.56,389.1888 1687.3397,419.3577 1720.6097,441.2777" fill="none" id="Engine-to-AE" style="stroke:#64B5F6;stroke-width:1;"/><polygon fill="#64B5F6" points="1725.62,444.5788,1720.3052,436.287,1721.4448,441.8279,1715.9039,442.9674,1725.62,444.5788" style="stroke:#64B5F6;stroke-width:1;"/></g><!--link HES to MP--><g class="link" data-entity-1="ent0013" data-entity-2="ent0016" data-link-type="dependency" data-source-line="45" id="lnk29"><path d="M1590.02,596.5488 C1586.77,614.3188 1583.2968,633.3862 1580.0568,651.1462" fill="none" id="HES-to-MP" style="stroke:#64B5F6;stroke-width:1;"/><polygon fill="#64B5F6" points="1578.98,657.0488,1584.5303,648.9128,1579.8774,652.1299,1576.6602,647.477,1578.98,657.0488" style="stroke:#64B5F6;stroke-width:1;"/></g><!--link HES to DG--><g class="link" data-entity-1="ent0013" data-entity-2="ent0017" data-link-type="dependency" data-source-line="46" id="lnk30"><path d="M1613.54,596.7288 C1626.09,612.4088 1641.25,634.6288 1648,657.2788 C1658.87,693.7688 1646.3251,731.8931 1634.7051,757.5531" fill="none" id="HES-to-DG" style="stroke:#64B5F6;stroke-width:1;"/><polygon fill="#64B5F6" points="1632.23,763.0188,1639.5865,756.4703,1634.2926,758.464,1632.2989,753.1701,1632.23,763.0188" style="stroke:#64B5F6;stroke-width:1;"/></g><!--link MDM to HES--><g class="link" data-entity-1="ent0014" data-entity-2="ent0013" data-link-type="dependency" data-source-line="47" id="lnk31"><path d="M1594,490.4088 C1594,508.1888 1594,527.1488 1594,544.9188" fill="none" id="MDM-to-HES" style="stroke:#64B5F6;stroke-width:1;"/><polygon fill="#64B5F6" points="1594,550.9188,1598,541.9188,1594,545.9188,1590,541.9188,1594,550.9188" style="stroke:#64B5F6;stroke-width:1;"/></g><!--link AE to HES--><g class="link" data-entity-1="ent0015" data-entity-2="ent0013" data-link-type="dependency" data-source-line="48" id="lnk32"><path d="M1724.41,490.4088 C1696.34,508.1288 1662.0334,529.7756 1633.9034,547.5356" fill="none" id="AE-to-HES" style="stroke:#64B5F6;stroke-width:1;"/><polygon fill="#64B5F6" points="1628.83,550.7388,1638.5756,549.3163,1633.0579,548.0695,1634.3047,542.5517,1628.83,550.7388" style="stroke:#64B5F6;stroke-width:1;"/></g><!--link MP to DG--><g class="link" data-entity-1="ent0016" data-entity-2="ent0017" data-link-type="dependency" data-source-line="49" id="lnk33"><path d="M1584.64,702.6788 C1592.49,720.4488 1601.0944,739.9309 1608.9444,757.6909" fill="none" id="MP-to-DG" style="stroke:#64B5F6;stroke-width:1;"/><polygon fill="#64B5F6" points="1611.37,763.1788,1611.3901,753.3299,1609.3486,758.6056,1604.073,756.5641,1611.37,763.1788" style="stroke:#64B5F6;stroke-width:1;"/></g><?plantuml-src ZLHHRzD037xFhp1CGaDQA5ktQOofKjea6sA5gXqJ4kNXcdZjQPUxxEx2A8ZVnJk_35ykxGhB1kr3K_lpP_kpdITsWGL2AHYNGM2v5GWdizv4NTbRfX4YdIsunSnM6eyX6hs1SxP4VTAPzQRoXFTIPgopQbLPr0P-_OIeiWlt-xv4wLpT5xid7TuB0dFDPSaqAs36ikivXSXye8JIi9Kcxhk1oF6ALSAcIje9_uQmszrmbXJEvWZV0w3F7MO_-144A-VJTR5FYJzD-adoMd29nuF3lQEzeoRu4pMxwY4gIy4pPhcIlh-D3e1LLeMvoinKdlChD2MJO2pJjYe_0pErD9Hc4CTxFaroq7tLFLWdgLKPyZmNw8Jr2Jw651Q-nIKiaEMeftB_vIxmAoYuCLpEExTQoRddT_5j2TOPEiGXxC8plrEkuWLelAcundmgXqfogpIn0igyL5pQclYiZdgqzaw1RhYU-PmRwyQRSa56ztIATYelbYNkE4LiPNOWKqLHim_7ZpDhwfjAQhZ7x1QUmMMIX5-Ou3cphl0ELOgQ3E5CgEpQrBpZV_1MXdOWhBjik2V4mJC4ugX7J8CSLCQgWfeeM5doHkWFe_-gEBJKS4CzU3E4tQEGMQlvZEw06l4W9mfGEYQK9nzVF4xE91DBoxE6ECQ2oHnCLHHCBwVoKWdhTdjj6ECNb1K24wYjLoPgLsRpCYQyg0IZPLZVHz9DzzBO1npkzm_ImzLzhB69d9EtJk4VOQlVZvEqlndbOyxSCbFTssV9vBbVicJoC7mO3s6RXkwXxj-3q6Yb3soK4oMFSBlDXH7Jrvvyz30qfZdHBalKhjqQ7f-smabBT-xXfot_BjcPAP5_3dl-I8zXjRo6vYAcSXk_PbXQQ0xq-GF1ZQh7S5EXvcY2e3dDDVGE5T1TjPd7xMRQwLRqHQivQYS9cWB9vtLmFXfigvscs6gFai3jmf_OqNrRV1guHRYNYsPzppOS_Htx6m00?></g></svg>