<?plantuml 1.2026.1?><svg xmlns="http://www.w3.org/2000/svg" xmlns:xlink="http://www.w3.org/1999/xlink" contentStyleType="text/css" data-diagram-type="DESCRIPTION" height="1203px" preserveAspectRatio="none" style="width:1677px;height:1203px;background:#FFFFFF;" version="1.1" viewBox="0 0 1677 1203" width="1677px" zoomAndPan="magnify"><title>PokeAMI &#8212; Simulated AMI Architecture</title><defs/><g><g class="title" data-source-line="3"><text fill="#000000" font-family="Verdana" font-size="22" font-weight="bold" lengthAdjust="spacing" textLength="489.8545" x="589.3262" y="37.1182">PokeAMI &#8212; Simulated AMI Architecture</text></g><!--cluster Smart Meters--><g class="cluster" data-qualified-name="Smart Meters" data-source-line="5" id="ent0002"><polygon fill="#FFFFFF" points="676,68.7373,686,58.7373,1416,58.7373,1416,152.7373,1406,162.7373,676,162.7373,676,68.7373" style="stroke:#000000;stroke-width:1;"/><line style="stroke:#000000;stroke-width:1;" x1="1406" x2="1416" y1="68.7373" y2="58.7373"/><line style="stroke:#000000;stroke-width:1;" x1="676" x2="1406" y1="68.7373" y2="68.7373"/><line style="stroke:#000000;stroke-width:1;" x1="1406" x2="1406" y1="68.7373" y2="162.7373"/><text fill="#000000" font-family="Verdana" font-size="14" font-weight="bold" lengthAdjust="spacing" textLength="105.7383" x="989.1309" y="85.8125">Smart Meters</text></g><!--cluster Communication Network--><g class="cluster" data-qualified-name="Communication Network" data-source-line="12" id="ent0007"><path d="M730.0254,207.5554 C737.707,194.2494 752.2307,194.0635 760.789,206.5081 C765.0719,195.3416 775.8908,191.8511 783.6929,202.8759 C793.7786,190.0892 805.2052,191.3689 813.8851,204.5128 C820.3138,190.6599 830.703,191.7688 839.3401,202.1977 C844.9202,189.1197 857.0487,187.0935 864.7239,200.164 C872.3185,188.6666 884.5491,188.1792 890.9776,201.4024 C899.0301,185.4471 912.8572,184.6441 921.8266,200.5136 C929.0476,190.2283 936.1338,188.6657 945.2816,198.2378 C956.2294,186.8827 965.1073,186.219 973.1927,201.264 C981.6666,187.6841 994.2069,187.9926 1001.2951,202.6435 C1009.0055,189.8181 1020.9905,190.3458 1028.7259,202.6162 C1035.438,191.0641 1045.3013,192.5735 1051.9811,202.6511 C1061.0405,188.1268 1072.9898,189.8487 1081.5396,203.1915 C1090.516,190.4995 1099.2244,192.8677 1106.4893,204.9174 C1129.4356,216.3354 1132.6118,229.8874 1112.4006,247.3217 C1132.7665,263.0625 1129.5736,280.0922 1105.3714,288.1624 C1098.7221,298.3194 1091.2654,300.9877 1082.5093,290.4947 C1075.0151,303.4477 1061.0451,306.0077 1053.488,290.5589 C1046.495,302.1868 1036.7674,302.5992 1028.0952,292.5236 C1022.354,306.5946 1009.5762,306.8612 1000.647,296.0387 C991.2167,310.3646 982.2032,310.2201 972.9683,295.8504 C966.4535,311.3665 954.6787,309.7181 945.9182,298.0882 C937.5857,310.1753 930.3153,309.5794 921.7488,298.3305 C912.2185,311.2782 902.9683,310.8058 893.8076,297.9307 C884.4456,310.3199 873.2301,309.4383 865.0997,296.5329 C856.7698,310.1036 846.4617,309.9436 838.4149,296.2558 C829.2383,309.3805 817.3183,308.4416 810.6007,293.7931 C804.4968,303.9619 793.357,304.3534 787.6676,293.3443 C777.5627,307.8131 763.7361,302.6178 758.0489,288.7301 C750.0986,299.2357 740.133,298.9789 732.9378,287.8535 C716.2754,276.5856 710.2193,258.7093 732.2082,246.7553 C715.6994,235.7464 713.7982,220.3872 730.0254,207.5554" fill="#FFFFFF" style="stroke:#000000;stroke-width:1;"/><text fill="#000000" font-family="Verdana" font-size="14" font-weight="bold" lengthAdjust="spacing" textLength="194.4277" x="820.2861" y="222.8125">Communication Network</text></g><!--cluster HES--><g class="cluster" data-qualified-name="HES" data-source-line="18" id="ent0011"><polygon fill="#FFFFFF" points="881,345.7373,891,335.7373,1283,335.7373,1283,462.7373,1273,472.7373,881,472.7373,881,345.7373" style="stroke:#000000;stroke-width:1;"/><line style="stroke:#000000;stroke-width:1;" x1="1273" x2="1283" y1="345.7373" y2="335.7373"/><line style="stroke:#000000;stroke-width:1;" x1="881" x2="1273" y1="345.7373" y2="345.7373"/><line style="stroke:#000000;stroke-width:1;" x1="1273" x2="1273" y1="345.7373" y2="472.7373"/><text fill="#000000" font-family="Verdana" font-size="14" font-weight="bold" lengthAdjust="spacing" textLength="124.0107" x="1015.9946" y="362.8125">Gridstream HES</text><text fill="#000000" font-family="Verdana" font-size="14" font-weight="bold" lengthAdjust="spacing" textLength="154.0615" x="1000.9692" y="379.8271">(Head-End System)</text></g><!--cluster MDM--><g class="cluster" data-qualified-name="MDM" data-source-line="23" id="ent0014"><polygon fill="#FFFFFF" points="520,547.7373,530,537.7373,846,537.7373,846,848.7373,836,858.7373,520,858.7373,520,547.7373" style="stroke:#000000;stroke-width:1;"/><line style="stroke:#000000;stroke-width:1;" x1="836" x2="846" y1="547.7373" y2="537.7373"/><line style="stroke:#000000;stroke-width:1;" x1="520" x2="836" y1="547.7373" y2="547.7373"/><line style="stroke:#000000;stroke-width:1;" x1="836" x2="836" y1="547.7373" y2="858.7373"/><text fill="#000000" font-family="Verdana" font-size="14" font-weight="bold" lengthAdjust="spacing" textLength="88.8877" x="634.5562" y="564.8125">Core MDMS</text><text fill="#000000" font-family="Verdana" font-size="14" font-weight="bold" lengthAdjust="spacing" textLength="150.9375" x="603.5313" y="581.8271">(Meter Data Mgmt)</text></g><!--cluster GA--><g class="cluster" data-qualified-name="GA" data-source-line="29" id="ent0018"><polygon fill="#FFFFFF" points="21,748.7373,31,738.7373,457,738.7373,457,1050.7373,447,1060.7373,21,1060.7373,21,748.7373" style="stroke:#000000;stroke-width:1;"/><line style="stroke:#000000;stroke-width:1;" x1="447" x2="457" y1="748.7373" y2="738.7373"/><line style="stroke:#000000;stroke-width:1;" x1="21" x2="447" y1="748.7373" y2="748.7373"/><line style="stroke:#000000;stroke-width:1;" x1="447" x2="447" y1="748.7373" y2="1060.7373"/><text fill="#000000" font-family="Verdana" font-size="14" font-weight="bold" lengthAdjust="spacing" textLength="164.5752" x="152.7124" y="765.8125">Gridstream Analytics</text></g><!--cluster DM--><g class="cluster" data-qualified-name="DM" data-source-line="35" id="ent0022"><polygon fill="#FFFFFF" points="886,731.7373,896,721.7373,1375,721.7373,1375,848.7373,1365,858.7373,886,858.7373,886,731.7373" style="stroke:#000000;stroke-width:1;"/><line style="stroke:#000000;stroke-width:1;" x1="1365" x2="1375" y1="731.7373" y2="721.7373"/><line style="stroke:#000000;stroke-width:1;" x1="886" x2="1365" y1="731.7373" y2="731.7373"/><line style="stroke:#000000;stroke-width:1;" x1="1365" x2="1365" y1="731.7373" y2="858.7373"/><text fill="#000000" font-family="Verdana" font-size="14" font-weight="bold" lengthAdjust="spacing" textLength="137.7305" x="1057.6348" y="748.8125">Delivery Manager</text><text fill="#000000" font-family="Verdana" font-size="14" font-weight="bold" lengthAdjust="spacing" textLength="161.1367" x="1045.9316" y="765.8271">(On-Demand Reads)</text></g><!--cluster API--><g class="cluster" data-qualified-name="API" data-source-line="40" id="ent0025"><polygon fill="#FFFFFF" points="940,933.7373,950,923.7373,1417,923.7373,1417,1176.7373,1407,1186.7373,940,1186.7373,940,933.7373" style="stroke:#000000;stroke-width:1;"/><line style="stroke:#000000;stroke-width:1;" x1="1407" x2="1417" y1="933.7373" y2="923.7373"/><line style="stroke:#000000;stroke-width:1;" x1="940" x2="1407" y1="933.7373" y2="933.7373"/><line style="stroke:#000000;stroke-width:1;" x1="1407" x2="1407" y1="933.7373" y2="1186.7373"/><text fill="#000000" font-family="Verdana" font-size="14" font-weight="bold" lengthAdjust="spacing" textLength="73.5615" x="1137.7192" y="950.8125">REST API</text><text fill="#000000" font-family="Verdana" font-size="14" font-weight="bold" lengthAdjust="spacing" textLength="198.3242" x="1075.3379" y="967.8271">(FastAPI + OpenAPI 3.1)</text></g><!--entity E350--><g class="entity" data-qualified-name="Smart Meters.E350" data-source-line="6" id="ent0003"><rect fill="#FFFFFF" height="47.0146" rx="2.5" ry="2.5" style="stroke:#000000;stroke-width:1;" width="157.2158" x="692.5" y="99.7373"/><rect fill="#FFFFFF" height="10" style="stroke:#000000;stroke-width:1;" width="15" x="829.7158" y="104.7373"/><rect fill="#FFFFFF" height="2" style="stroke:#000000;stroke-width:1;" width="4" x="827.7158" y="106.7373"/><rect fill="#FFFFFF" height="2" style="stroke:#000000;stroke-width:1;" width="4" x="827.7158" y="110.7373"/><text fill="#000000" font-family="Verdana" font-size="14" lengthAdjust="spacing" textLength="117.2158" x="707.5" y="133.8125">E350 Residential</text></g><!--entity E360--><g class="entity" data-qualified-name="Smart Meters.E360" data-source-line="7" id="ent0004"><rect fill="#FFFFFF" height="47.0146" rx="2.5" ry="2.5" style="stroke:#000000;stroke-width:1;" width="148.6777" x="1250.5" y="99.7373"/><rect fill="#FFFFFF" height="10" style="stroke:#000000;stroke-width:1;" width="15" x="1379.1777" y="104.7373"/><rect fill="#FFFFFF" height="2" style="stroke:#000000;stroke-width:1;" width="4" x="1377.1777" y="106.7373"/><rect fill="#FFFFFF" height="2" style="stroke:#000000;stroke-width:1;" width="4" x="1377.1777" y="110.7373"/><text fill="#000000" font-family="Verdana" font-size="14" lengthAdjust="spacing" textLength="108.6777" x="1265.5" y="133.8125">E360 Advanced</text></g><!--entity S4x--><g class="entity" data-qualified-name="Smart Meters.S4x" data-source-line="8" id="ent0005"><rect fill="#FFFFFF" height="47.0146" rx="2.5" ry="2.5" style="stroke:#000000;stroke-width:1;" width="139.4287" x="884.5" y="99.7373"/><rect fill="#FFFFFF" height="10" style="stroke:#000000;stroke-width:1;" width="15" x="1003.9287" y="104.7373"/><rect fill="#FFFFFF" height="2" style="stroke:#000000;stroke-width:1;" width="4" x="1001.9287" y="106.7373"/><rect fill="#FFFFFF" height="2" style="stroke:#000000;stroke-width:1;" width="4" x="1001.9287" y="110.7373"/><text fill="#000000" font-family="Verdana" font-size="14" lengthAdjust="spacing" textLength="99.4287" x="899.5" y="133.8125">S4x/E650 C&amp;I</text></g><!--entity E660--><g class="entity" data-qualified-name="Smart Meters.E660" data-source-line="9" id="ent0006"><rect fill="#FFFFFF" height="47.0146" rx="2.5" ry="2.5" style="stroke:#000000;stroke-width:1;" width="156.8877" x="1058.5" y="99.7373"/><rect fill="#FFFFFF" height="10" style="stroke:#000000;stroke-width:1;" width="15" x="1195.3877" y="104.7373"/><rect fill="#FFFFFF" height="2" style="stroke:#000000;stroke-width:1;" width="4" x="1193.3877" y="106.7373"/><rect fill="#FFFFFF" height="2" style="stroke:#000000;stroke-width:1;" width="4" x="1193.3877" y="110.7373"/><text fill="#000000" font-family="Verdana" font-size="14" lengthAdjust="spacing" textLength="116.8877" x="1073.5" y="133.8125">E660/Revelo IoT</text></g><!--entity RF--><g class="entity" data-qualified-name="Communication Network.RF" data-source-line="13" id="ent0008"><rect fill="#FFFFFF" height="47.0146" rx="2.5" ry="2.5" style="stroke:#000000;stroke-width:1;" width="98.9941" x="839.5" y="231.7373"/><rect fill="#FFFFFF" height="10" style="stroke:#000000;stroke-width:1;" width="15" x="918.4941" y="236.7373"/><rect fill="#FFFFFF" height="2" style="stroke:#000000;stroke-width:1;" width="4" x="916.4941" y="238.7373"/><rect fill="#FFFFFF" height="2" style="stroke:#000000;stroke-width:1;" width="4" x="916.4941" y="242.7373"/><text fill="#000000" font-family="Verdana" font-size="14" lengthAdjust="spacing" textLength="58.9941" x="854.5" y="265.8125">RF Mesh</text></g><!--entity PLC--><g class="entity" data-qualified-name="Communication Network.PLC" data-source-line="14" id="ent0009"><rect fill="#FFFFFF" height="47.0146" rx="2.5" ry="2.5" style="stroke:#000000;stroke-width:1;" width="66.0107" x="738" y="231.7373"/><rect fill="#FFFFFF" height="10" style="stroke:#000000;stroke-width:1;" width="15" x="784.0107" y="236.7373"/><rect fill="#FFFFFF" height="2" style="stroke:#000000;stroke-width:1;" width="4" x="782.0107" y="238.7373"/><rect fill="#FFFFFF" height="2" style="stroke:#000000;stroke-width:1;" width="4" x="782.0107" y="242.7373"/><text fill="#000000" font-family="Verdana" font-size="14" lengthAdjust="spacing" textLength="26.0107" x="753" y="265.8125">PLC</text></g><!--entity LTE--><g class="entity" data-qualified-name="Communication Network.LTE" data-source-line="15" id="ent0010"><rect fill="#FFFFFF" height="47.0146" rx="2.5" ry="2.5" style="stroke:#000000;stroke-width:1;" width="123.0771" x="973.5" y="231.7373"/><rect fill="#FFFFFF" height="10" style="stroke:#000000;stroke-width:1;" width="15" x="1076.5771" y="236.7373"/><rect fill="#FFFFFF" height="2" style="stroke:#000000;stroke-width:1;" width="4" x="1074.5771" y="238.7373"/><rect fill="#FFFFFF" height="2" style="stroke:#000000;stroke-width:1;" width="4" x="1074.5771" y="242.7373"/><text fill="#000000" font-family="Verdana" font-size="14" lengthAdjust="spacing" textLength="83.0771" x="988.5" y="265.8125">Cellular LTE</text></g><!--entity Data Collection--><g class="entity" data-qualified-name="HES.Data Collection" data-source-line="19" id="ent0012"><rect fill="#FFFFFF" height="47.0146" rx="2.5" ry="2.5" style="stroke:#000000;stroke-width:1;" width="146.3467" x="1113" y="401.7373"/><rect fill="#FFFFFF" height="10" style="stroke:#000000;stroke-width:1;" width="15" x="1239.3467" y="406.7373"/><rect fill="#FFFFFF" height="2" style="stroke:#000000;stroke-width:1;" width="4" x="1237.3467" y="408.7373"/><rect fill="#FFFFFF" height="2" style="stroke:#000000;stroke-width:1;" width="4" x="1237.3467" y="412.7373"/><text fill="#000000" font-family="Verdana" font-size="14" lengthAdjust="spacing" textLength="106.3467" x="1128" y="435.8125">Data Collection</text></g><!--entity Meter Inventory--><g class="entity" data-qualified-name="HES.Meter Inventory" data-source-line="20" id="ent0013"><rect fill="#FFFFFF" height="47.0146" rx="2.5" ry="2.5" style="stroke:#000000;stroke-width:1;" width="153.4014" x="924.5" y="401.7373"/><rect fill="#FFFFFF" height="10" style="stroke:#000000;stroke-width:1;" width="15" x="1057.9014" y="406.7373"/><rect fill="#FFFFFF" height="2" style="stroke:#000000;stroke-width:1;" width="4" x="1055.9014" y="408.7373"/><rect fill="#FFFFFF" height="2" style="stroke:#000000;stroke-width:1;" width="4" x="1055.9014" y="412.7373"/><text fill="#000000" font-family="Verdana" font-size="14" lengthAdjust="spacing" textLength="113.4014" x="939.5" y="435.8125">Meter Inventory</text></g><!--entity Validation--><g class="entity" data-qualified-name="MDM.Validation" data-source-line="24" id="ent0015"><rect fill="#FFFFFF" height="47.0146" rx="2.5" ry="2.5" style="stroke:#000000;stroke-width:1;" width="109.5078" x="693" y="603.7373"/><rect fill="#FFFFFF" height="10" style="stroke:#000000;stroke-width:1;" width="15" x="782.5078" y="608.7373"/><rect fill="#FFFFFF" height="2" style="stroke:#000000;stroke-width:1;" width="4" x="780.5078" y="610.7373"/><rect fill="#FFFFFF" height="2" style="stroke:#000000;stroke-width:1;" width="4" x="780.5078" y="614.7373"/><text fill="#000000" font-family="Verdana" font-size="14" lengthAdjust="spacing" textLength="69.5078" x="708" y="637.8125">Validation</text></g><!--entity Estimation--><g class="entity" data-qualified-name="MDM.Estimation" data-source-line="25" id="ent0016"><rect fill="#FFFFFF" height="47.0146" rx="2.5" ry="2.5" style="stroke:#000000;stroke-width:1;" width="114.2451" x="544" y="603.7373"/><rect fill="#FFFFFF" height="10" style="stroke:#000000;stroke-width:1;" width="15" x="638.2451" y="608.7373"/><rect fill="#FFFFFF" height="2" style="stroke:#000000;stroke-width:1;" width="4" x="636.2451" y="610.7373"/><rect fill="#FFFFFF" height="2" style="stroke:#000000;stroke-width:1;" width="4" x="636.2451" y="614.7373"/><text fill="#000000" font-family="Verdana" font-size="14" lengthAdjust="spacing" textLength="74.2451" x="559" y="637.8125">Estimation</text></g><!--entity Editing--><g class="entity" data-qualified-name="MDM.Editing" data-source-line="26" id="ent0017"><rect fill="#FFFFFF" height="47.0146" rx="2.5" ry="2.5" style="stroke:#000000;stroke-width:1;" width="88.3574" x="712" y="787.7373"/><rect fill="#FFFFFF" height="10" style="stroke:#000000;stroke-width:1;" width="15" x="780.3574" y="792.7373"/><rect fill="#FFFFFF" height="2" style="stroke:#000000;stroke-width:1;" width="4" x="778.3574" y="794.7373"/><rect fill="#FFFFFF" height="2" style="stroke:#000000;stroke-width:1;" width="4" x="778.3574" y="798.7373"/><text fill="#000000" font-family="Verdana" font-size="14" lengthAdjust="spacing" textLength="48.3574" x="727" y="821.8125">Editing</text></g><!--entity Demand Analysis--><g class="entity" data-qualified-name="GA.Demand Analysis" data-source-line="30" id="ent0019"><rect fill="#FFFFFF" height="47.0146" rx="2.5" ry="2.5" style="stroke:#000000;stroke-width:1;" width="161.0508" x="45.5" y="787.7373"/><rect fill="#FFFFFF" height="10" style="stroke:#000000;stroke-width:1;" width="15" x="186.5508" y="792.7373"/><rect fill="#FFFFFF" height="2" style="stroke:#000000;stroke-width:1;" width="4" x="184.5508" y="794.7373"/><rect fill="#FFFFFF" height="2" style="stroke:#000000;stroke-width:1;" width="4" x="184.5508" y="798.7373"/><text fill="#000000" font-family="Verdana" font-size="14" lengthAdjust="spacing" textLength="121.0508" x="60.5" y="821.8125">Demand Analysis</text></g><!--entity Voltage Monitoring--><g class="entity" data-qualified-name="GA.Voltage Monitoring" data-source-line="31" id="ent0020"><rect fill="#FFFFFF" height="47.0146" rx="2.5" ry="2.5" style="stroke:#000000;stroke-width:1;" width="172.2275" x="242" y="787.7373"/><rect fill="#FFFFFF" height="10" style="stroke:#000000;stroke-width:1;" width="15" x="394.2275" y="792.7373"/><rect fill="#FFFFFF" height="2" style="stroke:#000000;stroke-width:1;" width="4" x="392.2275" y="794.7373"/><rect fill="#FFFFFF" height="2" style="stroke:#000000;stroke-width:1;" width="4" x="392.2275" y="798.7373"/><text fill="#000000" font-family="Verdana" font-size="14" lengthAdjust="spacing" textLength="132.2275" x="257" y="821.8125">Voltage Monitoring</text></g><!--entity Revenue Protection--><g class="entity" data-qualified-name="GA.Revenue Protection" data-source-line="32" id="ent0021"><rect fill="#FFFFFF" height="47.0146" rx="2.5" ry="2.5" style="stroke:#000000;stroke-width:1;" width="176.459" x="45" y="989.7373"/><rect fill="#FFFFFF" height="10" style="stroke:#000000;stroke-width:1;" width="15" x="201.459" y="994.7373"/><rect fill="#FFFFFF" height="2" style="stroke:#000000;stroke-width:1;" width="4" x="199.459" y="996.7373"/><rect fill="#FFFFFF" height="2" style="stroke:#000000;stroke-width:1;" width="4" x="199.459" y="1000.7373"/><text fill="#000000" font-family="Verdana" font-size="14" lengthAdjust="spacing" textLength="136.459" x="60" y="1023.8125">Revenue Protection</text></g><!--entity Promise Tracking--><g class="entity" data-qualified-name="DM.Promise Tracking" data-source-line="36" id="ent0023"><rect fill="#FFFFFF" height="47.0146" rx="2.5" ry="2.5" style="stroke:#000000;stroke-width:1;" width="160.9414" x="1189.5" y="787.7373"/><rect fill="#FFFFFF" height="10" style="stroke:#000000;stroke-width:1;" width="15" x="1330.4414" y="792.7373"/><rect fill="#FFFFFF" height="2" style="stroke:#000000;stroke-width:1;" width="4" x="1328.4414" y="794.7373"/><rect fill="#FFFFFF" height="2" style="stroke:#000000;stroke-width:1;" width="4" x="1328.4414" y="798.7373"/><text fill="#000000" font-family="Verdana" font-size="14" lengthAdjust="spacing" textLength="120.9414" x="1204.5" y="821.8125">Promise Tracking</text></g><!--entity Comm Latency Simulation--><g class="entity" data-qualified-name="DM.Comm Latency Simulation" data-source-line="37" id="ent0024"><rect fill="#FFFFFF" height="47.0146" rx="2.5" ry="2.5" style="stroke:#000000;stroke-width:1;" width="224.7002" x="929.5" y="787.7373"/><rect fill="#FFFFFF" height="10" style="stroke:#000000;stroke-width:1;" width="15" x="1134.2002" y="792.7373"/><rect fill="#FFFFFF" height="2" style="stroke:#000000;stroke-width:1;" width="4" x="1132.2002" y="794.7373"/><rect fill="#FFFFFF" height="2" style="stroke:#000000;stroke-width:1;" width="4" x="1132.2002" y="798.7373"/><text fill="#000000" font-family="Verdana" font-size="14" lengthAdjust="spacing" textLength="184.7002" x="944.5" y="821.8125">Comm Latency Simulation</text></g><!--entity /meters--><g class="entity" data-qualified-name="API..meters" data-source-line="41" id="ent0026"><rect fill="#FFFFFF" height="47.0146" rx="2.5" ry="2.5" style="stroke:#000000;stroke-width:1;" width="95.4395" x="964.5" y="989.7373"/><rect fill="#FFFFFF" height="10" style="stroke:#000000;stroke-width:1;" width="15" x="1039.9395" y="994.7373"/><rect fill="#FFFFFF" height="2" style="stroke:#000000;stroke-width:1;" width="4" x="1037.9395" y="996.7373"/><rect fill="#FFFFFF" height="2" style="stroke:#000000;stroke-width:1;" width="4" x="1037.9395" y="1000.7373"/><text fill="#000000" font-family="Verdana" font-size="14" lengthAdjust="spacing" textLength="55.4395" x="979.5" y="1023.8125">/meters</text></g><!--entity /readings--><g class="entity" data-qualified-name="API..readings" data-source-line="42" id="ent0027"><rect fill="#FFFFFF" height="47.0146" rx="2.5" ry="2.5" style="stroke:#000000;stroke-width:1;" width="106.5205" x="1094.5" y="989.7373"/><rect fill="#FFFFFF" height="10" style="stroke:#000000;stroke-width:1;" width="15" x="1181.0205" y="994.7373"/><rect fill="#FFFFFF" height="2" style="stroke:#000000;stroke-width:1;" width="4" x="1179.0205" y="996.7373"/><rect fill="#FFFFFF" height="2" style="stroke:#000000;stroke-width:1;" width="4" x="1179.0205" y="1000.7373"/><text fill="#000000" font-family="Verdana" font-size="14" lengthAdjust="spacing" textLength="66.5205" x="1109.5" y="1023.8125">/readings</text></g><!--entity /usage-points--><g class="entity" data-qualified-name="API..usage-points" data-source-line="43" id="ent0028"><rect fill="#FFFFFF" height="47.0146" rx="2.5" ry="2.5" style="stroke:#000000;stroke-width:1;" width="137.0703" x="1236.5" y="989.7373"/><rect fill="#FFFFFF" height="10" style="stroke:#000000;stroke-width:1;" width="15" x="1353.5703" y="994.7373"/><rect fill="#FFFFFF" height="2" style="stroke:#000000;stroke-width:1;" width="4" x="1351.5703" y="996.7373"/><rect fill="#FFFFFF" height="2" style="stroke:#000000;stroke-width:1;" width="4" x="1351.5703" y="1000.7373"/><text fill="#000000" font-family="Verdana" font-size="14" lengthAdjust="spacing" textLength="97.0703" x="1251.5" y="1023.8125">/usage-points</text></g><!--entity /analytics--><g class="entity" data-qualified-name="API..analytics" data-source-line="44" id="ent0029"><rect fill="#FFFFFF" height="47.0146" rx="2.5" ry="2.5" style="stroke:#000000;stroke-width:1;" width="108.1064" x="964" y="1115.7373"/><rect fill="#FFFFFF" height="10" style="stroke:#000000;stroke-width:1;" width="15" x="1052.1064" y="1120.7373"/><rect fill="#FFFFFF" height="2" style="stroke:#000000;stroke-width:1;" width="4" x="1050.1064" y="1122.7373"/><rect fill="#FFFFFF" height="2" style="stroke:#000000;stroke-width:1;" width="4" x="1050.1064" y="1126.7373"/><text fill="#000000" font-family="Verdana" font-size="14" lengthAdjust="spacing" textLength="68.1064" x="979" y="1149.8125">/analytics</text></g><!--entity /delivery-promises--><g class="entity" data-qualified-name="API..delivery-promises" data-source-line="45" id="ent0030"><rect fill="#FFFFFF" height="47.0146" rx="2.5" ry="2.5" style="stroke:#000000;stroke-width:1;" width="171.9268" x="1107" y="1115.7373"/><rect fill="#FFFFFF" height="10" style="stroke:#000000;stroke-width:1;" width="15" x="1258.9268" y="1120.7373"/><rect fill="#FFFFFF" height="2" style="stroke:#000000;stroke-width:1;" width="4" x="1256.9268" y="1122.7373"/><rect fill="#FFFFFF" height="2" style="stroke:#000000;stroke-width:1;" width="4" x="1256.9268" y="1126.7373"/><text fill="#000000" font-family="Verdana" font-size="14" lengthAdjust="spacing" textLength="131.9268" x="1122" y="1149.8125">/delivery-promises</text></g><!--entity Client--><g class="entity" data-qualified-name="Client" data-source-line="48" id="ent0031"><ellipse cx="1605.7534" cy="781.2373" fill="#FFFFFF" rx="8" ry="8" style="stroke:#000000;stroke-width:1;"/><path d="M1605.7534,789.2373 L1605.7534,816.2373 M1592.7534,797.2373 L1618.7534,797.2373 M1605.7534,816.2373 L1592.7534,831.2373 M1605.7534,816.2373 L1618.7534,831.2373" fill="none" style="stroke:#000000;stroke-width:1;"/><text fill="#000000" font-family="Verdana" font-size="14" lengthAdjust="spacing" textLength="129.5068" x="1541" y="847.3125">Client Applications</text></g><!--link E350 to RF--><g class="link" data-entity-1="ent0003" data-entity-2="ent0008" data-link-type="dependency" data-source-line="50" id="lnk32"><path d="M791.55,146.8773 C813.08,170.5973 842.6668,203.195 864.2568,226.975" fill="none" id="E350-to-RF" style="stroke:#000000;stroke-width:1;"/><polygon fill="#000000" points="868.29,231.4173,865.2018,222.0651,864.929,227.7154,859.2788,227.4427,868.29,231.4173" style="stroke:#000000;stroke-width:1;"/></g><!--link E360 to LTE--><g class="link" data-entity-1="ent0004" data-entity-2="ent0010" data-link-type="dependency" data-source-line="51" id="lnk33"><path d="M1281.78,146.8573 C1266.48,154.6573 1249.08,163.2973 1233,170.7373 C1185.77,192.5973 1136.7762,213.1627 1096.9062,229.4127" fill="none" id="E360-to-LTE" style="stroke:#000000;stroke-width:1;"/><polygon fill="#000000" points="1091.35,231.6773,1101.1941,231.9846,1095.9802,229.7902,1098.1746,224.5763,1091.35,231.6773" style="stroke:#000000;stroke-width:1;"/></g><!--link S4x to LTE--><g class="link" data-entity-1="ent0005" data-entity-2="ent0010" data-link-type="dependency" data-source-line="52" id="lnk34"><path d="M968.11,146.8773 C982.89,170.5973 1002.7866,202.5452 1017.6066,226.3252" fill="none" id="S4x-to-LTE" style="stroke:#000000;stroke-width:1;"/><polygon fill="#000000" points="1020.78,231.4173,1019.4145,221.6636,1018.1355,227.1739,1012.6251,225.8948,1020.78,231.4173" style="stroke:#000000;stroke-width:1;"/></g><!--link E660 to LTE--><g class="link" data-entity-1="ent0006" data-entity-2="ent0010" data-link-type="dependency" data-source-line="53" id="lnk35"><path d="M1119.23,146.8773 C1100.63,170.5973 1075.2627,202.9161 1056.6127,226.6961" fill="none" id="E660-to-LTE" style="stroke:#000000;stroke-width:1;"/><polygon fill="#000000" points="1052.91,231.4173,1061.6116,226.804,1055.9956,227.483,1055.3166,221.867,1052.91,231.4173" style="stroke:#000000;stroke-width:1;"/></g><!--link E350 to PLC--><g class="link" data-entity-1="ent0003" data-entity-2="ent0009" data-link-type="dependency" data-source-line="54" id="lnk36"><path d="M771,146.8773 C771,170.5973 771,201.6373 771,225.4173" fill="none" id="E350-to-PLC" style="stroke:#000000;stroke-width:1;"/><polygon fill="#000000" points="771,231.4173,775,222.4173,771,226.4173,767,222.4173,771,231.4173" style="stroke:#000000;stroke-width:1;"/></g><!--link RF to HES--><g class="link" data-entity-1="ent0008" data-entity-2="ent0011" data-link-type="dependency" data-source-line="56" id="lnk37"><path d="M889,278.8973 C889,290.1823 889,304.7148 889,320.2131 C889,324.0877 889,328.0226 889,331.9822 C889,332.9721 889,333.9636 889,334.956 C889,335.2041 889,329.4523 889,329.7005" fill="none" id="RF-to-HES" style="stroke:#000000;stroke-width:1;"/><polygon fill="#000000" points="889,335.7005,893,326.7005,889,330.7005,885,326.7005,889,335.7005" style="stroke:#000000;stroke-width:1;"/></g><!--link PLC to HES--><g class="link" data-entity-1="ent0009" data-entity-2="ent0011" data-link-type="dependency" data-source-line="57" id="lnk38"><path d="M786.91,278.8973 C802.765,301.4673 827.745,337.0273 849.0263,367.3236 C859.6669,382.4717 869.3828,396.3039 876.5711,406.5384 C877.4696,407.8177 878.3287,409.0408 879.1451,410.2033 C879.5533,410.7845 879.9508,411.3505 880.3373,411.9008 C880.5306,412.176 877.2727,407.5372 877.4604,407.8044" fill="none" id="PLC-to-HES" style="stroke:#000000;stroke-width:1;"/><polygon fill="#000000" points="880.9088,412.7145,879.0096,403.0505,878.0351,408.6228,872.4628,407.6483,880.9088,412.7145" style="stroke:#000000;stroke-width:1;"/></g><!--link LTE to HES--><g class="link" data-entity-1="ent0010" data-entity-2="ent0011" data-link-type="dependency" data-source-line="58" id="lnk39"><path d="M1000,278.7873 C986.55,286.9273 970.86,295.8073 956,302.7373 C935.49,312.2973 922.67,302.5073 908,319.7373 C904.235,324.1611 901.1089,329.0784 898.5215,334.3009 C898.3598,334.6273 900.793,329.544 900.6354,329.8728" fill="none" id="LTE-to-HES" style="stroke:#000000;stroke-width:1;"/><polygon fill="#000000" points="898.0426,335.2836,905.5391,328.8959,900.2033,330.7746,898.3246,325.4388,898.0426,335.2836" style="stroke:#000000;stroke-width:1;"/></g><!--link HES to MDM--><g class="link" data-entity-1="ent0011" data-entity-2="ent0014" data-link-type="dependency" data-source-line="60" id="lnk40"><path d="M880.7926,458.4116 C880.7194,458.6985 880.6459,458.9869 880.572,459.2767 C875.8434,477.8217 869.6656,502.0498 863.4888,526.2748 C857.3119,550.4998 851.1359,574.7217 846.4111,593.2542 C846.3373,593.5438 846.2638,593.8319 846.1907,594.1187 C846.1541,594.2621 847.5999,588.5911 847.5636,588.7338" fill="none" id="HES-to-MDM" style="stroke:#000000;stroke-width:1;"/><polygon fill="#000000" points="846.0813,594.5478,852.1807,586.8149,847.3165,589.7028,844.4287,584.8386,846.0813,594.5478" style="stroke:#000000;stroke-width:1;"/><text fill="#000000" font-family="Verdana" font-size="13" lengthAdjust="spacing" textLength="84.4302" x="871" y="510.8071">raw readings</text></g><!--link MDM to GA--><g class="link" data-entity-1="ent0014" data-entity-2="ent0018" data-link-type="dependency" data-source-line="61" id="lnk41"><path d="M519.6388,711.4555 C519.4575,711.5912 519.2765,711.7274 519.0959,711.8641 C516.2049,714.0514 513.3917,716.3746 510.6586,718.8067 C505.1923,723.6707 500.0461,728.9698 495.2378,734.4861 C485.6213,745.5186 477.3563,757.4198 470.585,768.4473 C467.1994,773.9611 464.1872,779.2564 461.5662,784.1154 C460.2557,786.545 459.043,788.8654 457.9304,791.0496 C457.6522,791.5957 457.3803,792.1332 457.1147,792.6618 C457.0815,792.7278 459.7389,787.4308 459.7058,787.4966" fill="none" id="MDM-to-GA" style="stroke:#000000;stroke-width:1;"/><polygon fill="#000000" points="457.0154,792.8596,464.6264,786.6088,459.2574,788.3904,457.4758,783.0215,457.0154,792.8596" style="stroke:#000000;stroke-width:1;"/><text fill="#000000" font-family="Verdana" font-size="13" lengthAdjust="spacing" textLength="92.917" x="586" y="694.8071">validated data</text></g><!--link HES to GA--><g class="link" data-entity-1="ent0011" data-entity-2="ent0018" data-link-type="dependency" data-source-line="62" id="lnk42"><path d="M880.9204,426.7978 C880.6932,426.8144 880.4615,426.8314 880.2254,426.8487 C879.7531,426.8835 879.2629,426.9198 878.7552,426.9576 C876.7245,427.1088 874.4131,427.2846 871.8406,427.4857 C861.5505,428.2902 847.0823,429.5004 829.682,431.1678 C794.8816,434.5026 748.3531,439.6667 700.0662,447.0736 C603.4925,461.8873 499.885,485.6723 469,521.7373 C448.26,545.9523 443.175,617.1448 443.3175,682.7448 C443.3531,699.1448 443.7155,715.1953 444.2416,730.0748 C444.3074,731.9347 444.3757,733.7764 444.4463,735.5981 C444.4815,736.509 444.2754,731.4198 444.3117,732.3205" fill="none" id="HES-to-GA" style="stroke:#000000;stroke-width:1;"/><polygon fill="#000000" points="444.5538,738.3156,448.1874,729.1616,444.3521,733.3197,440.194,729.4843,444.5538,738.3156" style="stroke:#000000;stroke-width:1;"/><text fill="#000000" font-family="Verdana" font-size="13" lengthAdjust="spacing" textLength="57.4019" x="470" y="632.8071">raw data</text></g><!--link HES to API--><g class="link" data-entity-1="ent0011" data-entity-2="ent0025" data-link-type="dependency" data-source-line="64" id="lnk43"><path d="M896.2028,472.7819 C896.2485,472.8823 896.2945,472.9825 896.3407,473.0826 C896.5257,473.483 896.715,473.8811 896.909,474.2766 C897.2968,475.0677 897.7027,475.8487 898.1276,476.6176 C898.9775,478.1555 899.9031,479.6451 900.9111,481.0711 C902.927,483.9229 905.2725,486.5198 908,488.7373 C923.41,501.2673 977.31,494.1373 997,496.7373 C1060.96,505.1873 1080,498.0173 1140,521.7373 C1278.83,576.6073 1339.6,580.5973 1421,705.7373 C1468.54,778.8173 1465.16,813.8873 1450,899.7373 C1445.445,925.5323 1435.4425,953.1873 1426.4575,974.6236 C1424.2113,979.9826 1422.0286,984.953 1420.0105,989.4085 C1419.0015,991.6362 1420.5755,988.3003 1419.6614,990.2548" fill="none" id="HES-to-API" style="stroke:#000000;stroke-width:1;"/><polygon fill="#000000" points="1417.1196,995.6898,1424.5556,989.2319,1419.2378,991.1606,1417.309,985.8427,1417.1196,995.6898" style="stroke:#000000;stroke-width:1;"/></g><!--link MDM to API--><g class="link" data-entity-1="ent0014" data-entity-2="ent0025" data-link-type="dependency" data-source-line="65" id="lnk44"><path d="M846.0099,629.7874 C846.1061,629.8058 846.2031,629.8244 846.3008,629.8432 C846.4963,629.8807 846.6949,629.9188 846.8965,629.9575 C847.2998,630.0349 847.7153,630.1145 848.1428,630.1964 C848.9979,630.3601 849.9007,630.5328 850.8489,630.7137 C858.4347,632.1614 868.9256,634.1429 881.0788,636.3836 C905.385,640.8648 936.34,646.3823 964,650.7373 C1053.29,664.7973 1303.07,641.8473 1367,705.7373 C1414.865,753.5773 1425.7875,828.5748 1424.5375,892.4073 C1424.225,908.3654 1423.1517,923.6257 1421.7047,937.5895 C1420.9812,944.5713 1420.1642,951.229 1419.3022,957.4877 C1418.8712,960.6171 1418.4289,963.6467 1417.9814,966.5672 C1417.7577,968.0274 1417.5327,969.4604 1417.3071,970.8649 C1417.2507,971.2161 1418.1562,965.643 1418.0998,965.9906" fill="none" id="MDM-to-API" style="stroke:#000000;stroke-width:1;"/><polygon fill="#000000" points="1417.1378,971.913,1422.529,963.6707,1417.9394,966.9776,1414.6325,962.3881,1417.1378,971.913" style="stroke:#000000;stroke-width:1;"/></g><!--link GA to API--><g class="link" data-entity-1="ent0018" data-entity-2="ent0025" data-link-type="dependency" data-source-line="66" id="lnk45"><path d="M457.0906,821.5355 C457.2294,821.6872 457.3697,821.8403 457.5117,821.9948 C457.7956,822.3038 458.0858,822.6184 458.3824,822.9383 C458.9754,823.5781 459.5935,824.2391 460.2356,824.9191 C461.52,826.2792 462.9008,827.7155 464.3708,829.2108 C467.3109,832.2016 470.6078,835.4289 474.2038,838.7561 C488.5875,852.0648 507.755,866.9723 528,874.7373 C610.12,906.2373 835.12,896.2073 923,899.7373 C935.96,900.2573 1380.11,899.3373 1390,907.7373 C1394.4275,911.4973 1398.0531,915.9142 1401.0072,920.7694 C1401.3764,921.3763 1401.7352,921.99 1402.0837,922.6102 C1402.258,922.9202 1399.5785,917.9527 1399.7476,918.2659" fill="none" id="GA-to-API" style="stroke:#000000;stroke-width:1;"/><polygon fill="#000000" points="1402.5988,923.5452,1401.8416,913.7255,1400.2228,919.1458,1394.8025,917.5271,1402.5988,923.5452" style="stroke:#000000;stroke-width:1;"/></g><!--link DM to API--><g class="link" data-entity-1="ent0022" data-entity-2="ent0025" data-link-type="dependency" data-source-line="67" id="lnk46"><path d="M901.1256,858.8745 C901.1714,858.9747 901.2176,859.0747 901.264,859.1746 C901.4497,859.5741 901.6399,859.9713 901.8346,860.3658 C902.2241,861.155 902.632,861.9338 903.0591,862.7002 C903.9132,864.233 904.8442,865.7164 905.8586,867.1346 C907.8873,869.9712 910.25,872.5473 913,874.7373 C996.13,940.9173 1310.82,836.8773 1390,907.7373 C1394.3288,911.6111 1397.8798,916.1137 1400.7791,921.0319 C1401.1415,921.6466 1401.4938,922.2679 1401.836,922.8952 C1401.9216,923.0521 1399.1755,917.9192 1399.2599,918.0767" fill="none" id="DM-to-API" style="stroke:#000000;stroke-width:1;"/><polygon fill="#000000" points="1402.0909,923.3669,1401.3711,913.5443,1399.7317,918.9584,1394.3176,917.319,1402.0909,923.3669" style="stroke:#000000;stroke-width:1;"/></g><!--link HES to DM--><g class="link" data-entity-1="ent0011" data-entity-2="ent0022" data-link-type="dependency" data-source-line="69" id="lnk47"><path d="M896.537,472.8427 C896.7201,473.2452 896.9076,473.6457 897.0995,474.0438 C897.4832,474.84 897.8844,475.6269 898.3039,476.4025 C899.1429,477.9537 900.0551,479.4599 901.0468,480.9058 C903.0302,483.7976 905.3313,486.4486 908,488.7373 C927.09,505.0973 947.22,478.0173 964,496.7373 C1018.61,557.6673 968.67,598.9273 970,680.7373 C970.12,688.2873 974.96,692.0373 970,697.7373 C953.22,717.0473 931.45,688.0173 913,705.7373 C908.81,709.7611 905.3634,714.3768 902.5408,719.378 C902.188,720.0032 904.629,715.3194 904.2954,715.9562" fill="none" id="HES-to-DM" style="stroke:#000000;stroke-width:1;"/><polygon fill="#000000" points="901.5113,721.2711,909.2308,715.1548,903.8314,716.842,902.1442,711.4426,901.5113,721.2711" style="stroke:#000000;stroke-width:1;"/><text fill="#000000" font-family="Verdana" font-size="13" lengthAdjust="spacing" textLength="140.334" x="991" y="632.8071">on-demand collection</text></g><!--link MDM to DM--><g class="link" data-entity-1="ent0014" data-entity-2="ent0022" data-link-type="dependency" data-source-line="70" id="lnk48"><path d="M846.0643,654.446 C846.1414,654.6966 846.2189,654.9485 846.2968,655.2017 C846.6085,656.2148 846.9269,657.2493 847.2514,658.304 C852.4441,675.1795 859.2281,697.2267 866.0113,719.2711 C872.7944,741.3154 879.5766,763.357 884.7655,780.2212 C885.0898,781.2752 885.4079,782.309 885.7193,783.3213 C885.7972,783.5744 884.1102,778.0914 884.1872,778.3418" fill="none" id="MDM-to-DM" style="stroke:#000000;stroke-width:1;"/><polygon fill="#000000" points="885.9517,784.0765,887.1281,774.2981,884.4813,779.2976,879.4818,776.6508,885.9517,784.0765" style="stroke:#000000;stroke-width:1;"/><text fill="#000000" font-family="Verdana" font-size="13" lengthAdjust="spacing" textLength="100.0518" x="861" y="694.8071">validated reads</text></g><!--link Client to API--><g class="link" data-entity-1="ent0031" data-entity-2="ent0025" data-link-type="dependency" data-source-line="72" id="lnk49"><path d="M1568.48,850.3273 C1540.35,878.8873 1501.2775,918.5548 1468.8475,951.4773 C1452.6325,967.9386 1438.0781,982.7136 1427.3825,993.5707 C1424.7086,996.285 1422.2759,998.7545 1420.1186,1000.9442 C1419.04,1002.039 1422.2412,998.7898 1421.3046,999.7404" fill="none" id="Client-to-API" style="stroke:#000000;stroke-width:1;"/><polygon fill="#000000" points="1417.0937,1004.0146,1426.2595,1000.4106,1420.6028,1000.4528,1420.5606,994.7961,1417.0937,1004.0146" style="stroke:#000000;stroke-width:1;"/><text fill="#000000" font-family="Verdana" font-size="13" lengthAdjust="spacing" textLength="120.7642" x="1531" y="896.8071">HTTP + X-API-Key</text></g><?plantuml-src RLDVYnen47_FfvZwK5hALikrFjn3OT7rb6fFL8v2wqFO31hC9f94hr8E-Y7w2Vj9EabsuntK1tVcD_zdVddbzzWW71MNcZ4llK9OcWEMYndy_Vq7rh8vAUvHG41AM--bnzgVB3AcZK3ehHjkFIpGetKz-CM0Vj-hcqy3MA6J0hMNN6s1EmXWPnuEe1HdhciKhMtOsjOVV_Qh8OMFNi-YYO0sQZWSz5TuHcLWPZOfZZ3sn5Yjp4b0RsIQvgHbpRqq6hwYVpJsaBjQJQXFju-1gqd2blDHrEcRW14gHIDRc6-gQA5lg92clRDIE6-HDp2jrZ_qcoboKLHQmFhYF3PlUo64J5tDCVSSHaOfsXhrj4reN1VCz9dMO-nbUoqmCXPXCLw4tCahPbZi6fzoawtB_S2L5FnPsifvsRm0XFHIxxR_7Q3KN5syh5tCUrVcbh7XD50qE-dQL0z6URwZteoMr7FCchPA5z4deeqrlXiobnkZacUq5rXmJT6MfhhNHLjXHRjpQQhhK9IcaGvXOtbzk5O9buKvCL7NbuwLBqkjglK6okMCIaouyoJ1ExW_eWxIpViFgL1Gsahz9fAsBT2ddGYgb_MJeuQBev7QPuntA-i0qSvN75FRBZR4QzeGtL99kY-KnwDgAPbMdN36uYifYi-1ZF5913dGZIYVvS3mgz951BeoudEGYMsCz2oJOvPPe69G0crkmV97wEPa0Gecklmjd1ENwA7JFyzXqHQY8ffXsc8E3pAvTU8pDBl7saON8jszpiyX9uaUrnv2ZuwnTe5jFlAORZPBkkgtWjJY2rxOFm00?></g></svg>